<svg width="80" height="80" viewBox="0 0 80 80" fill="none" xmlns="http://www.w3.org/2000/svg">
<path d="M22.1227 4.69584C22.6983 4.60251 23.3214 4.59293 23.8608 4.84751C24.6591 5.16939 25.2241 5.93397 25.4175 6.75793C25.4831 7.34397 25.4641 7.96501 25.1868 8.50022C24.6835 9.60647 23.3448 10.2444 22.1693 9.93772C20.9635 9.66793 20.066 8.50751 20.0777 7.2748C20.0545 6.07522 20.9727 4.97939 22.1227 4.69584Z" fill="white"/>
<path d="M56.616 4.69167C57.1991 4.60022 57.8266 4.59917 58.3681 4.86688C59.2635 5.26188 59.8733 6.19709 59.9358 7.16667C59.9358 7.91292 59.6858 8.6923 59.1327 9.21459C58.6627 9.71042 57.9843 9.98438 57.3091 10.015C56.262 10.03 55.206 9.4048 54.7956 8.42813C54.5308 7.90667 54.5635 7.30584 54.5993 6.74084C54.7956 5.74501 55.6314 4.92188 56.616 4.69167Z" fill="white"/>
<path d="M53.1535 45.4671C54.5189 45.4612 55.8843 45.4612 57.2466 45.4671C57.2289 50.89 57.2437 56.3127 57.2408 61.7354H53.1625C53.1595 56.3127 53.1743 50.89 53.1535 45.4671Z" fill="white"/>
<mask id="mask0_1_123" style="mask-type:luminance" maskUnits="userSpaceOnUse" x="5" y="1" width="70" height="13">
<path d="M5.54662 1.87979H74.5066V13.12H5.54662V1.87979Z" fill="white"/>
</mask>
<g mask="url(#mask0_1_123)">
<path d="M56.616 4.69164C55.6314 4.92185 54.7956 5.74497 54.5993 6.74081C54.5635 7.30581 54.5308 7.90664 54.7956 8.4281C55.206 9.40477 56.262 10.03 57.3091 10.015C57.9843 9.98435 58.6627 9.71039 59.1327 9.21456C59.6858 8.69227 59.9358 7.91289 59.9358 7.16664C59.8733 6.19706 59.2635 5.26185 58.3681 4.86685C57.8266 4.59914 57.1991 4.60018 56.616 4.69164ZM22.122 4.69581C20.972 4.97935 20.0539 6.07518 20.077 7.27477C20.0654 8.50747 20.9627 9.66789 22.1689 9.93768C23.3441 10.2443 24.6831 9.60643 25.1862 8.50018C25.4635 7.96497 25.4827 7.34393 25.4168 6.75789C25.2235 5.93393 24.6585 5.16935 23.8602 4.84747C23.321 4.59289 22.6977 4.60227 22.122 4.69581ZM8.92453 2.32497C9.78474 1.9481 10.736 1.8906 11.6631 1.91414C30.7754 1.91622 49.887 1.91414 68.9991 1.91289C71.0843 1.8781 73.116 3.16706 73.9608 5.07685C74.3147 5.82956 74.4666 6.66518 74.4516 7.49539C74.4427 9.35372 74.4695 11.2116 74.4397 13.0687C73.8241 12.8341 73.1606 12.7716 72.5033 12.7671C50.8777 12.7716 29.252 12.7691 7.62641 12.7704C6.94286 12.7885 6.24203 12.8179 5.59536 13.07C5.56766 11.1393 5.58245 9.20935 5.5762 7.28018C5.56349 5.15227 6.94911 3.10956 8.92474 2.32497" fill="#C7C7C7"/>
</g>
<path d="M56.2948 29.1915C56.6012 29.065 56.9344 29.0715 57.2585 29.0969C57.2377 34.5384 57.2617 39.979 57.2467 45.4196V45.4671C55.8844 45.4613 54.519 45.4613 53.1535 45.4671V45.4196C53.1535 41.6596 53.1506 37.8967 53.1567 34.1367C50.4348 35.0411 47.7189 35.9602 45.0002 36.8586C44.9912 35.63 45.006 34.4015 44.9912 33.1729C48.7542 31.8315 52.5289 30.525 56.2948 29.1915Z" fill="#C7C7C7"/>
<path d="M23.0092 31.1461C24.7138 29.8477 26.8465 29.1765 28.9763 29.0969C31.0896 29.0225 33.2771 29.3642 35.1244 30.4377C36.5879 31.2755 37.745 32.6167 38.3756 34.1784C39.0033 35.7371 39.2025 37.4594 39.0121 39.1252C38.6017 41.7936 36.5431 43.9471 34.1338 45.015C34.4788 45.1192 34.815 45.25 35.1333 45.4107C34.9221 45.4523 34.7108 45.4761 34.4967 45.4702C31.6542 45.4494 28.8127 45.488 25.9738 45.4494C25.9629 44.8336 25.9481 44.2148 25.9875 43.599C28.0358 43.5515 30.1965 43.8013 32.114 42.903C33.6875 42.2367 34.8596 40.7315 35.0798 39.033C35.27 37.4119 35.1065 35.6419 34.1486 34.2707C33.3931 33.188 32.114 32.5869 30.8344 32.3967C29.1077 32.1557 27.2148 32.3252 25.7654 33.3752C24.339 34.3777 23.584 36.1475 23.6196 37.8669C22.3054 37.9027 20.99 37.8759 19.6746 37.8819C19.7002 37.159 19.755 36.4332 19.9429 35.7311C20.395 33.9107 21.5113 32.2717 23.0092 31.1461Z" fill="#C7C7C7"/>
<path d="M5.59561 13.0698C6.24228 12.8181 6.94311 12.7883 7.6279 12.7702C29.2535 12.7694 50.8792 12.7715 72.5048 12.7669C73.1592 12.7715 73.8256 12.8342 74.4412 13.0685C76.3123 13.7429 77.8235 15.4735 78.0198 17.4781C77.639 16.1042 76.8181 14.8256 75.5896 14.0685C74.7 13.5135 73.6619 13.1929 72.6119 13.2025C50.9148 13.2173 29.2208 13.2173 7.52374 13.2173C5.89103 13.1875 4.24436 13.8925 3.2029 15.1646C2.69707 15.705 2.43311 16.4025 2.07936 17.0385C2.42978 15.2102 3.85999 13.6867 5.59686 13.0698" fill="#4483EF"/>
<path d="M53.0792 45.4255L53.1535 45.4196V45.4671C53.1744 50.89 53.1596 56.3127 53.1625 61.7354H57.2408C57.2437 56.3127 57.229 50.89 57.2467 45.4671V45.4196L57.3121 45.4255C57.9131 45.4969 58.5169 45.4523 59.1208 45.4582C64.2312 45.4552 69.3417 45.4494 74.4521 45.4582C75.044 54.0044 75.5973 62.5536 76.1833 71.0996C76.2398 72.0752 76.3648 73.0807 76.094 74.0386L76.0702 74.0684C75.8173 74.3479 75.6746 74.699 75.4931 75.0261C74.5354 76.5909 72.7535 77.6438 70.9062 77.6261C50.521 77.6142 30.1358 77.6348 9.75062 77.629C9.10999 77.629 8.45853 77.6617 7.83499 77.495C6.42624 77.1084 5.14895 76.1863 4.43978 74.8982C4.29083 74.6157 4.15291 74.3242 3.95416 74.0742L3.92874 74.0386C3.58791 72.7594 3.8652 71.4327 3.9077 70.1329C4.46812 61.914 5.00187 53.6921 5.56999 45.4702C12.3642 45.4552 19.1594 45.4613 25.9535 45.4671C25.96 45.8569 25.9631 46.2494 25.9577 46.6392C28.1106 46.6809 30.3644 46.4221 32.4025 47.2757C33.7798 47.8113 34.9102 48.9623 35.3475 50.3842C35.8262 51.9577 35.7727 53.6979 35.2077 55.2448C34.681 56.6934 33.4229 57.8119 31.9533 58.2432C30.1669 58.7727 28.1779 58.7282 26.4579 57.9873C25.1187 57.4163 24.0265 56.2621 23.6137 54.8582C23.4173 54.2394 23.3406 53.5879 23.3287 52.9425C22.0271 52.9484 20.7252 52.9454 19.4235 52.9425C19.4479 54.5904 19.8477 56.2621 20.7669 57.6423C21.7469 59.1565 23.2675 60.26 24.9331 60.9086C27.0452 61.7325 29.3785 61.914 31.6112 61.5719C33.7827 61.2298 35.9096 60.2571 37.385 58.5942C38.7385 57.089 39.4406 55.0782 39.5327 53.0734C39.6577 51.1577 39.2144 49.1467 38.0008 47.6267C37.3167 46.7284 36.3767 46.0769 35.4158 45.5059C35.8829 45.4463 36.3558 45.4613 36.8258 45.4613C41.6387 45.4582 46.4548 45.4642 51.2677 45.4613C51.8715 45.4463 52.4754 45.4969 53.0792 45.4255Z" fill="#4483EF"/>
<mask id="mask1_1_123" style="mask-type:luminance" maskUnits="userSpaceOnUse" x="1" y="13" width="78" height="33">
<path d="M1.91998 13.1733H78.1198V45.4933H1.91998V13.1733Z" fill="white"/>
</mask>
<g mask="url(#mask1_1_123)">
<path d="M3.20165 15.1646C4.2429 13.8925 5.88978 13.1875 7.52374 13.2173C29.2196 13.2173 50.9148 13.2173 72.6119 13.2025C73.6619 13.1929 74.7 13.5136 75.5894 14.0686C76.8179 14.8256 77.6389 16.1042 78.0198 17.4781C78.1269 17.9633 78.0971 18.4667 78.0406 18.9571C76.8625 27.7856 75.64 36.6088 74.4769 45.4404C69.5748 45.4315 64.6696 45.4433 59.7673 45.4373C58.9494 45.4315 58.1312 45.4702 57.3133 45.4254L57.2477 45.4196C57.2598 39.979 57.2389 34.5383 57.2598 29.0965C56.9354 29.0713 56.6023 29.0646 56.2958 29.1911C52.53 30.5246 48.7552 31.8344 44.9923 33.1729C45.0071 34.4015 44.9923 35.63 45.0012 36.8586C47.72 35.9602 50.4358 35.0411 53.1577 34.1367C53.1517 37.8967 53.1517 41.6596 53.1548 45.4196L53.0804 45.4254C47.3808 45.4702 41.6814 45.4286 35.9821 45.4494C35.6996 45.4433 35.4021 45.5296 35.1344 45.4106C34.816 45.25 34.48 45.1192 34.1348 45.015C36.5444 43.9471 38.6027 41.7936 39.0133 39.1252C39.2035 37.4594 39.0044 35.7371 38.3767 34.1783C37.746 32.6167 36.5889 31.2754 35.1254 30.4377C33.2781 29.3642 31.0904 29.0225 28.9775 29.0965C26.8475 29.1763 24.7144 29.8473 23.0106 31.1461C21.5125 32.2717 20.3964 33.9106 19.9444 35.7342C19.7562 36.4331 19.701 37.159 19.6754 37.8819C20.991 37.8758 22.3064 37.9027 23.621 37.8669C23.585 36.1475 24.34 34.3777 25.7669 33.3752C27.2162 32.3252 29.1092 32.1556 30.8356 32.3967C32.115 32.5869 33.3942 33.1879 34.1498 34.2706C35.1075 35.6419 35.2712 37.4148 35.0808 39.0329C34.8606 40.7315 33.6887 42.2367 32.115 42.9029C30.1977 43.8013 28.0369 43.5515 25.9887 43.5992H25.9379C25.9592 44.2177 25.9346 44.8365 25.9517 45.4523C19.1544 45.4433 12.356 45.4404 5.55769 45.4552C4.39811 36.805 3.22082 28.1558 2.05519 19.5071C1.92082 18.6915 1.8754 17.8456 2.07936 17.0386C2.4329 16.4025 2.69728 15.705 3.20269 15.1646" fill="#3664D0"/>
</g>
<path d="M3.95417 74.0742C4.15271 74.3242 4.29105 74.6157 4.43938 74.8982C5.14896 76.1863 6.42625 77.1084 7.835 77.495C8.45813 77.6617 9.11021 77.629 9.74917 77.629C30.1346 77.6348 50.5196 77.614 70.9077 77.6261C72.7521 77.6438 74.5338 76.5909 75.4917 75.0261C75.6731 74.699 75.8158 74.3479 76.0658 74.0684C75.6167 75.8115 74.2154 77.2571 72.5021 77.7925C71.5473 78.1257 70.521 78.0425 69.5304 78.0544C49.6748 78.0544 29.819 78.0513 9.96334 78.0513C9.17021 78.0602 8.36 78.0663 7.5975 77.8194C5.85 77.3017 4.41355 75.8413 3.95271 74.0742" fill="#3664D0"/>
</svg>
