<svg width="80" height="80" viewBox="0 0 80 80" fill="none" xmlns="http://www.w3.org/2000/svg">
<path d="M73.0229 69.0034H6.89727C4.33456 69.0034 2.17539 66.9098 2.17539 64.2788V16.5048C2.17539 13.9421 4.26706 11.783 6.89831 11.783H73.0239C75.5896 11.783 77.7485 13.8746 77.7485 16.5063V64.2803C77.7485 66.9084 75.6579 69.0017 73.0239 69.0017L73.0229 69.0034Z" fill="#E3E3E3"/>
<path d="M11.6218 69.0033L39.8947 46.2625L40.0966 45.0481L10.947 24.0635L10.8793 67.9919L11.6218 69.0044V69.0033Z" fill="#231F20" fill-opacity="0.098"/>
<path d="M6.89852 69.0033C4.26706 69.0033 2.17539 66.9098 2.17539 64.2787V16.4396C2.17539 13.8073 4.26706 13.3348 6.89831 13.3348C9.52998 13.335 11.6216 13.8746 11.6216 16.4385V69.0023H6.89831L6.89852 69.0033Z" fill="#D54B3D"/>
<path d="M6.89852 14.0096C10.2723 14.0096 10.9471 15.0219 10.9471 16.4386V68.3254H6.89852C4.67185 68.3254 2.85018 66.505 2.85018 64.2779L2.84998 16.4386C2.84998 14.9534 3.52477 14.0088 6.89852 14.0088V14.0096ZM6.89852 13.335C4.26706 13.335 2.17539 13.8746 2.17539 16.4388V64.2779C2.17539 66.909 4.26706 69.0025 6.89831 69.0025H11.6216V16.4388C11.6216 13.8063 9.52998 13.334 6.89831 13.334L6.89852 13.335Z" fill="#D72B27"/>
<path d="M73.0229 69.0034H68.3012V16.3029C68.3012 13.6723 70.3918 13.335 73.0229 13.335C75.6568 13.335 77.7475 13.6723 77.7475 16.3038V64.3479C77.7475 66.9106 75.6568 69.0042 73.0229 69.0042V69.0034Z" fill="#D54B3D"/>
<path d="M73.0229 14.0096C76.0606 14.0096 77.0733 14.6169 77.0733 16.3038V64.3479C77.0733 66.5721 75.25 68.3954 73.0229 68.3954H68.9754V16.3038C68.9754 14.5502 69.9881 14.0106 73.0229 14.0106V14.0096ZM73.0229 13.335C70.3918 13.335 68.3012 13.6723 68.3012 16.3038V69.0696H73.0229C75.6568 69.0696 77.7475 66.979 77.7475 64.3479V16.3038C77.7475 13.6731 75.6568 13.3359 73.0229 13.3359V13.335Z" fill="#D72B27"/>
<path d="M39.8948 46.2625L4.20102 20.3521C2.10789 18.8002 1.5006 15.8315 3.05248 13.7396C4.60435 11.6479 7.64102 11.1756 9.80019 12.7275L39.9587 34.6571L70.3252 12.4577C72.4187 10.9058 75.3883 11.3781 76.9383 13.5373C78.4914 15.6292 78.0191 18.5979 75.8604 20.1498L39.8964 46.2625H39.8948Z" fill="#D54B3D"/>
<path d="M73.0229 12.1877C74.3058 12.1877 75.5202 12.795 76.331 13.8746C77.6137 15.6965 77.2068 18.1929 75.4518 19.5427L39.8947 45.4519L4.60475 19.8125C2.78245 18.4629 2.31016 15.899 3.59225 14.1446C4.33454 13.1325 5.61662 12.4577 6.966 12.4577C7.84308 12.4577 8.72037 12.7275 9.39537 13.2673L39.4885 35.1292L39.8954 35.399L40.2993 35.1292L70.5943 12.93C71.3368 12.4575 72.1475 12.1877 73.0235 12.1877H73.0229ZM73.0229 11.5131C72.0785 11.5131 71.066 11.7829 70.2583 12.3902L39.8947 34.5896L9.73329 12.6602C8.92287 12.0529 7.91079 11.7829 6.8985 11.7829C5.41391 11.7829 3.92975 12.4577 2.98495 13.7398C1.50058 15.8312 2.10787 18.8004 4.19954 20.3523L39.8933 46.331L75.7891 20.15C77.8795 18.5981 78.3518 15.6967 76.87 13.5375C75.9227 12.1879 74.5062 11.5131 73.0214 11.5131H73.0229Z" fill="#D72B27"/>
</svg>
