<svg width="245" height="88" viewBox="0 0 245 88" fill="none" xmlns="http://www.w3.org/2000/svg">
<path d="M19.4029 38.82L19.6909 32.052H22.2829L23.0389 35.652C23.5189 35.82 24.0469 35.976 24.6229 36.12C25.1989 36.264 25.7629 36.408 26.3149 36.552C26.8909 36.672 27.3949 36.768 27.8269 36.84C28.2829 36.888 28.5949 36.912 28.7629 36.912C28.9789 36.912 29.2669 36.84 29.6269 36.696C30.0109 36.528 30.3949 36.324 30.7789 36.084C31.1869 35.82 31.5349 35.556 31.8229 35.292C32.1109 35.004 32.2789 34.764 32.3269 34.572C32.3749 34.332 32.3989 34.056 32.3989 33.744C32.4229 33.408 32.4349 33.072 32.4349 32.736C32.4349 32.4 32.4109 32.1 32.3629 31.836C32.3389 31.572 32.2909 31.392 32.2189 31.296C32.0269 31.056 31.5949 30.744 30.9229 30.36C30.2749 29.976 29.5189 29.556 28.6549 29.1C27.8149 28.62 26.9749 28.152 26.1349 27.696C25.3189 27.216 24.6109 26.772 24.0109 26.364C23.4109 25.956 23.0509 25.608 22.9309 25.32C22.8589 25.08 22.7869 24.744 22.7149 24.312C22.6669 23.88 22.6309 23.412 22.6069 22.908C22.5829 22.38 22.5709 21.888 22.5709 21.432C22.1149 21.792 21.7909 22.104 21.5989 22.368C21.4069 22.608 21.2749 22.848 21.2029 23.088C21.1549 23.328 21.1309 23.64 21.1309 24.024C21.1309 24.576 21.1549 25.032 21.2029 25.392C21.2509 25.752 21.3589 26.076 21.5269 26.364C21.7429 26.676 22.0549 26.976 22.4629 27.264C22.8709 27.552 23.4229 27.912 24.1189 28.344C24.7669 28.728 25.4389 29.124 26.1349 29.532C26.8549 29.916 27.5389 30.3 28.1869 30.684C28.8589 31.068 29.4229 31.416 29.8789 31.728C30.3349 32.016 30.6229 32.256 30.7429 32.448C30.8629 32.64 30.9109 32.916 30.8869 33.276C30.8869 33.612 30.8629 33.9 30.8149 34.14C30.6949 34.356 30.4549 34.584 30.0949 34.824C29.7349 35.064 29.3749 35.256 29.0149 35.4C29.0629 35.16 29.0869 34.896 29.0869 34.608C29.1109 34.32 29.1109 34.068 29.0869 33.852C29.0869 33.612 29.0389 33.444 28.9429 33.348C28.7749 33.132 28.3909 32.832 27.7909 32.448C27.1909 32.064 26.4829 31.656 25.6669 31.224C24.8749 30.768 24.0709 30.312 23.2549 29.856C22.4389 29.376 21.7309 28.92 21.1309 28.488C20.5309 28.032 20.1349 27.624 19.9429 27.264C19.8229 27.024 19.7269 26.7 19.6549 26.292C19.5829 25.86 19.5349 25.404 19.5109 24.924C19.4869 24.444 19.4869 23.988 19.5109 23.556C19.5349 23.1 19.5829 22.728 19.6549 22.44C19.8229 22.008 20.1469 21.54 20.6269 21.036C21.1069 20.532 21.6589 20.028 22.2829 19.524C22.9309 18.996 23.5909 18.528 24.2629 18.12C24.9589 17.688 25.5949 17.352 26.1709 17.112C26.7709 16.848 27.2629 16.716 27.6469 16.716C27.7909 16.716 28.1029 16.728 28.5829 16.752C29.0869 16.776 29.6749 16.824 30.3469 16.896C31.0189 16.944 31.7029 17.004 32.3989 17.076C33.1189 17.124 33.7909 17.196 34.4149 17.292C35.0629 17.388 35.5909 17.472 35.9989 17.544L35.7109 23.88H33.2629L32.5069 20.064C32.1469 19.896 31.6909 19.74 31.1389 19.596C30.5869 19.428 30.0469 19.296 29.5189 19.2C28.9909 19.08 28.5589 19.02 28.2229 19.02C28.0789 19.02 27.9469 19.032 27.8269 19.056C27.7069 19.08 27.6109 19.116 27.5389 19.164C27.4669 19.188 27.3949 19.236 27.3229 19.308C27.2029 19.476 27.1189 19.728 27.0709 20.064C27.0469 20.376 27.0349 20.712 27.0349 21.072C27.0589 21.432 27.0949 21.768 27.1429 22.08C27.1909 22.392 27.2629 22.62 27.3589 22.764C27.5269 22.98 27.8749 23.244 28.4029 23.556C28.9549 23.868 29.6029 24.216 30.3469 24.6C31.0909 24.984 31.8469 25.392 32.6149 25.824C33.4069 26.232 34.1269 26.652 34.7749 27.084C35.4469 27.516 35.9749 27.936 36.3589 28.344C36.4309 28.608 36.4789 28.98 36.5029 29.46C36.5509 29.916 36.5749 30.444 36.5749 31.044C36.5989 31.62 36.5989 32.196 36.5749 32.772C36.5749 33.348 36.5389 33.852 36.4669 34.284C36.2509 34.884 35.8189 35.484 35.1709 36.084C34.5469 36.684 33.8269 37.236 33.0109 37.74C32.2189 38.22 31.4629 38.616 30.7429 38.928C30.0229 39.24 29.4709 39.396 29.0869 39.396C28.5829 39.396 27.9109 39.372 27.0709 39.324C26.2309 39.3 25.3309 39.252 24.3709 39.18C23.4109 39.132 22.4869 39.072 21.5989 39C20.7349 38.928 20.0029 38.868 19.4029 38.82ZM45.3519 39.396C44.2239 39.396 43.2519 39.228 42.4359 38.892C41.6199 38.556 40.9959 37.98 40.5639 37.164C40.1319 36.348 39.9159 35.208 39.9159 33.744V25.356L38.5479 24.816V22.944C38.5479 22.944 38.7519 22.908 39.1599 22.836C39.5679 22.764 40.0479 22.68 40.5999 22.584C41.1759 22.488 41.6919 22.404 42.1479 22.332C42.6279 22.236 42.9159 22.188 43.0119 22.188C43.1079 22.188 43.2759 22.296 43.5159 22.512C43.7799 22.704 44.0199 22.908 44.2359 23.124C44.4759 23.34 44.5959 23.496 44.5959 23.592V33.708C44.5959 34.452 44.6919 34.992 44.8839 35.328C45.0999 35.64 45.3279 35.832 45.5679 35.904C45.8319 35.976 46.0359 36.012 46.1799 36.012C46.2759 36.012 46.4679 35.952 46.7559 35.832C47.0439 35.688 47.3679 35.544 47.7279 35.4C48.0879 35.232 48.3879 35.088 48.6279 34.968V25.356L47.2599 24.816V22.944C47.2599 22.944 47.4639 22.908 47.8719 22.836C48.3039 22.764 48.7959 22.68 49.3479 22.584C49.8999 22.488 50.4159 22.404 50.8959 22.332C51.3759 22.236 51.6639 22.188 51.7599 22.188C51.8799 22.188 52.0599 22.296 52.2999 22.512C52.5399 22.704 52.7679 22.908 52.9839 23.124C53.1999 23.34 53.3079 23.496 53.3079 23.592V36.264L54.7119 36.804V38.712C54.7119 38.712 54.4959 38.748 54.0639 38.82C53.6559 38.868 53.1639 38.94 52.5879 39.036C52.0119 39.132 51.4839 39.216 51.0039 39.288C50.5239 39.36 50.2239 39.396 50.1039 39.396C50.0319 39.396 49.8879 39.3 49.6719 39.108C49.4559 38.916 49.2519 38.712 49.0599 38.496C48.8919 38.28 48.8079 38.124 48.8079 38.028V36.984C48.5199 37.2 48.1959 37.452 47.8359 37.74C47.4759 38.004 47.1159 38.268 46.7559 38.532C46.3959 38.772 46.0839 38.976 45.8199 39.144C45.5799 39.312 45.4239 39.396 45.3519 39.396ZM65.6609 22.188C66.8129 22.188 67.8449 22.5 68.7569 23.124C69.6689 23.724 70.3889 24.612 70.9169 25.788C71.4449 26.964 71.7089 28.404 71.7089 30.108C71.7089 31.26 71.6129 32.34 71.4209 33.348C71.2529 34.332 71.0369 35.088 70.7729 35.616C70.5569 35.88 70.1729 36.228 69.6209 36.66C69.0689 37.068 68.4569 37.488 67.7849 37.92C67.1129 38.328 66.4889 38.676 65.9129 38.964C65.3609 39.252 64.9529 39.396 64.6889 39.396C64.5449 39.396 64.2569 39.36 63.8249 39.288C63.3929 39.24 62.9009 39.18 62.3489 39.108V42.42L63.8609 42.96V44.904C63.5729 44.952 63.1769 45.012 62.6729 45.084C62.1689 45.18 61.6409 45.264 61.0889 45.336C60.5609 45.408 60.0809 45.468 59.6489 45.516C59.2409 45.564 58.9889 45.588 58.8929 45.588C58.8209 45.588 58.6649 45.492 58.4249 45.3C58.2089 45.132 58.0049 44.928 57.8129 44.688C57.6209 44.472 57.5249 44.328 57.5249 44.256L57.7409 38.064V25.32L56.3729 24.816V22.908C56.6369 22.86 56.9969 22.8 57.4529 22.728C57.9089 22.656 58.3769 22.584 58.8569 22.512C59.3609 22.416 59.8049 22.344 60.1889 22.296C60.5729 22.224 60.8249 22.188 60.9449 22.188C61.0169 22.188 61.1489 22.296 61.3409 22.512C61.5569 22.704 61.7609 22.908 61.9529 23.124C62.1689 23.34 62.2769 23.496 62.2769 23.592V24.672C62.6369 24.408 63.0689 24.084 63.5729 23.7C64.0769 23.292 64.5329 22.944 64.9409 22.656C65.3489 22.344 65.5889 22.188 65.6609 22.188ZM64.9049 25.608C64.8569 25.608 64.6769 25.68 64.3649 25.824C64.0769 25.944 63.7409 26.1 63.3569 26.292C62.9969 26.46 62.6849 26.604 62.4209 26.724V36.012C62.7329 36.18 63.1049 36.348 63.5369 36.516C63.9929 36.684 64.4129 36.816 64.7969 36.912C65.2049 36.984 65.4929 36.996 65.6609 36.948C65.8769 36.852 66.0569 36.588 66.2009 36.156C66.3689 35.724 66.4889 35.052 66.5609 34.14C66.6569 33.228 66.7049 32.052 66.7049 30.612C66.7049 29.556 66.6089 28.656 66.4169 27.912C66.2249 27.144 65.9849 26.568 65.6969 26.184C65.4329 25.8 65.1689 25.608 64.9049 25.608ZM78.6403 31.188C78.6403 32.364 78.7843 33.312 79.0723 34.032C79.3603 34.728 79.7203 35.232 80.1523 35.544C80.5843 35.856 80.9923 36.012 81.3763 36.012C81.4243 36.012 81.6523 36 82.0603 35.976C82.4683 35.952 82.9603 35.928 83.5363 35.904C84.1123 35.88 84.6763 35.856 85.2283 35.832C85.7803 35.808 86.2243 35.796 86.5603 35.796V37.776C86.2003 37.872 85.7203 38.016 85.1203 38.208C84.5203 38.4 83.8963 38.58 83.2483 38.748C82.6243 38.916 82.0483 39.06 81.5203 39.18C81.0163 39.324 80.6683 39.396 80.4763 39.396C79.1803 39.396 78.0283 39.108 77.0203 38.532C76.0123 37.932 75.2203 37.056 74.6443 35.904C74.0923 34.752 73.8163 33.348 73.8163 31.692C73.8163 30.54 73.9003 29.448 74.0683 28.416C74.2603 27.384 74.4763 26.604 74.7163 26.076C74.9323 25.788 75.3163 25.428 75.8683 24.996C76.4443 24.564 77.0683 24.144 77.7403 23.736C78.4123 23.304 79.0363 22.944 79.6123 22.656C80.1883 22.344 80.6083 22.188 80.8723 22.188C82.2643 22.188 83.4163 22.428 84.3283 22.908C85.2643 23.388 85.9723 24.252 86.4523 25.5C86.9323 26.748 87.1483 28.56 87.1003 30.936L76.7323 32.016V30.072L82.5283 29.064C82.5283 27.744 82.3963 26.7 82.1323 25.932C81.8923 25.164 81.4483 24.744 80.8003 24.672C80.6563 24.648 80.4643 24.636 80.2243 24.636C79.9843 24.636 79.7803 24.672 79.6123 24.744C79.3483 24.912 79.1203 25.572 78.9283 26.724C78.7363 27.852 78.6403 29.34 78.6403 31.188ZM91.7733 39.396C91.7013 39.396 91.5333 39.3 91.2693 39.108C91.0293 38.916 90.8013 38.712 90.5853 38.496C90.3693 38.256 90.2613 38.088 90.2613 37.992V25.284L88.8573 24.816V22.908C88.8573 22.908 89.0613 22.872 89.4693 22.8C89.8773 22.728 90.3573 22.656 90.9093 22.584C91.4613 22.488 91.9773 22.404 92.4573 22.332C92.9373 22.236 93.2373 22.188 93.3573 22.188C93.4293 22.188 93.5853 22.296 93.8253 22.512C94.0653 22.728 94.2813 22.956 94.4733 23.196C94.6893 23.412 94.7973 23.568 94.7973 23.664L94.7613 25.212C95.0493 24.876 95.3493 24.54 95.6613 24.204C95.9733 23.844 96.2733 23.52 96.5613 23.232C96.8733 22.92 97.1253 22.668 97.3173 22.476C97.5333 22.284 97.6653 22.188 97.7133 22.188C98.1213 22.188 98.5893 22.248 99.1173 22.368C99.6453 22.464 100.029 22.56 100.269 22.656C100.317 22.8 100.389 23.028 100.485 23.34C100.605 23.652 100.665 23.94 100.665 24.204C100.665 24.324 100.593 24.552 100.449 24.888C100.329 25.224 100.185 25.572 100.017 25.932C99.8493 26.268 99.6813 26.568 99.5133 26.832C99.3693 27.096 99.2613 27.228 99.1893 27.228C99.1173 27.18 98.9493 27.108 98.6853 27.012C98.4213 26.892 98.1333 26.784 97.8213 26.688C97.5333 26.568 97.2813 26.508 97.0653 26.508C96.9933 26.508 96.8613 26.532 96.6693 26.58C96.5013 26.628 96.3093 26.7 96.0933 26.796C95.9013 26.892 95.6973 26.988 95.4813 27.084C95.2653 27.156 95.0853 27.24 94.9413 27.336V35.94L97.1733 36.588V38.604C97.1733 38.604 97.0053 38.628 96.6693 38.676C96.3333 38.724 95.9133 38.796 95.4093 38.892C94.9293 38.964 94.4253 39.036 93.8973 39.108C93.3693 39.204 92.9013 39.276 92.4933 39.324C92.1093 39.372 91.8693 39.396 91.7733 39.396ZM107.455 19.92C107.359 20.712 107.263 21.516 107.167 22.332C107.095 23.124 107.035 23.964 106.987 24.852C106.939 25.74 106.915 26.736 106.915 27.84C106.915 29.952 107.083 31.584 107.419 32.736C107.755 33.864 108.235 34.644 108.859 35.076C109.483 35.508 110.215 35.724 111.055 35.724H116.203V38.496C115.819 38.592 115.279 38.7 114.583 38.82C113.911 38.916 113.203 39 112.459 39.072C111.739 39.168 111.103 39.24 110.551 39.288C109.999 39.36 109.663 39.396 109.543 39.396C107.935 39.396 106.543 39.036 105.367 38.316C104.191 37.572 103.279 36.42 102.631 34.86C101.983 33.3 101.659 31.296 101.659 28.848C101.659 27.384 101.755 26.052 101.947 24.852C102.163 23.628 102.427 22.608 102.739 21.792C103.075 21.36 103.543 20.892 104.143 20.388C104.767 19.86 105.427 19.368 106.123 18.912L107.455 19.92ZM108.895 35.796V19.344C108.895 19.104 108.967 18.756 109.111 18.3C109.279 17.844 109.459 17.34 109.651 16.788L110.803 16.824V33.744C110.803 33.888 110.719 34.152 110.551 34.536C110.407 34.896 110.203 35.316 109.939 35.796H108.895ZM116.203 24.276H113.683L113.179 20.208C112.939 20.112 112.627 20.028 112.243 19.956C111.859 19.86 111.487 19.788 111.127 19.74C110.791 19.668 110.515 19.632 110.299 19.632C110.083 19.632 109.903 19.632 109.759 19.632C109.615 19.632 109.483 19.644 109.363 19.668L109.651 16.788C109.747 16.74 109.843 16.716 109.939 16.716C110.035 16.692 110.131 16.68 110.227 16.68C110.659 16.68 111.259 16.716 112.027 16.788C112.795 16.86 113.599 16.944 114.439 17.04C115.279 17.136 116.011 17.22 116.635 17.292L116.203 24.276ZM118.172 18.012V16.104C118.172 16.104 118.316 16.08 118.604 16.032C118.892 15.984 119.252 15.924 119.684 15.852C120.14 15.78 120.596 15.72 121.052 15.672C121.508 15.6 121.904 15.54 122.24 15.492C122.6 15.444 122.828 15.42 122.924 15.42C122.996 15.42 123.14 15.516 123.356 15.708C123.572 15.9 123.776 16.104 123.968 16.32C124.16 16.536 124.256 16.692 124.256 16.788L124.004 24.528L124.256 24.564C124.544 24.348 124.868 24.108 125.228 23.844C125.588 23.556 125.936 23.292 126.272 23.052C126.632 22.812 126.932 22.608 127.172 22.44C127.412 22.272 127.556 22.188 127.604 22.188C128.756 22.188 129.74 22.368 130.556 22.728C131.372 23.064 131.996 23.64 132.428 24.456C132.86 25.272 133.076 26.4 133.076 27.84L133.04 37.74C133.04 38.388 132.872 39.108 132.536 39.9C132.224 40.716 131.768 41.484 131.168 42.204C130.568 42.948 129.848 43.572 129.008 44.076L127.604 42.888C127.892 42.12 128.084 41.424 128.18 40.8C128.3 40.176 128.36 39.576 128.36 39C128.384 38.424 128.396 37.824 128.396 37.2V27.912C128.396 27.144 128.288 26.604 128.072 26.292C127.88 25.98 127.652 25.788 127.388 25.716C127.148 25.644 126.956 25.608 126.812 25.608C126.74 25.608 126.524 25.68 126.164 25.824C125.828 25.968 125.48 26.124 125.12 26.292C124.76 26.436 124.472 26.556 124.256 26.652V36.264L125.624 36.804V38.676C125.624 38.676 125.42 38.712 125.012 38.784C124.604 38.856 124.112 38.94 123.536 39.036C122.96 39.132 122.432 39.216 121.952 39.288C121.496 39.36 121.208 39.396 121.088 39.396C121.016 39.396 120.848 39.3 120.584 39.108C120.344 38.916 120.116 38.712 119.9 38.496C119.684 38.256 119.576 38.088 119.576 37.992V18.516L118.172 18.012ZM138.429 39.396C138.333 39.396 138.141 39.288 137.853 39.072C137.589 38.88 137.337 38.664 137.097 38.424C136.881 38.184 136.773 38.028 136.773 37.956V25.248L135.369 24.816V22.908C135.369 22.908 135.573 22.872 135.981 22.8C136.413 22.728 136.917 22.656 137.493 22.584C138.069 22.488 138.597 22.404 139.077 22.332C139.581 22.236 139.881 22.188 139.977 22.188C140.073 22.188 140.229 22.296 140.445 22.512C140.685 22.704 140.901 22.92 141.093 23.16C141.309 23.4 141.417 23.568 141.417 23.664V36.336L142.821 36.804V38.676C142.821 38.676 142.617 38.712 142.209 38.784C141.825 38.856 141.357 38.928 140.805 39C140.253 39.096 139.749 39.18 139.293 39.252C138.837 39.348 138.549 39.396 138.429 39.396ZM136.413 16.392C136.413 16.344 136.545 16.2 136.809 15.96C137.073 15.72 137.385 15.456 137.745 15.168C138.129 14.88 138.465 14.628 138.753 14.412C139.041 14.196 139.221 14.088 139.293 14.088C139.413 14.088 139.617 14.208 139.905 14.448C140.217 14.688 140.529 14.988 140.841 15.348C141.153 15.708 141.417 16.044 141.633 16.356C141.873 16.644 141.981 16.848 141.957 16.968L141.741 17.868C141.717 17.964 141.573 18.132 141.309 18.372C141.045 18.588 140.733 18.84 140.373 19.128C140.037 19.392 139.713 19.62 139.401 19.812C139.113 20.004 138.921 20.1 138.825 20.1C138.705 20.1 138.501 19.98 138.213 19.74C137.925 19.476 137.625 19.176 137.313 18.84C137.001 18.504 136.737 18.18 136.521 17.868C136.329 17.556 136.245 17.352 136.269 17.256L136.413 16.392ZM149.55 31.188C149.55 32.364 149.694 33.312 149.982 34.032C150.27 34.728 150.63 35.232 151.062 35.544C151.494 35.856 151.902 36.012 152.286 36.012C152.334 36.012 152.562 36 152.97 35.976C153.378 35.952 153.87 35.928 154.446 35.904C155.022 35.88 155.586 35.856 156.138 35.832C156.69 35.808 157.134 35.796 157.47 35.796V37.776C157.11 37.872 156.63 38.016 156.03 38.208C155.43 38.4 154.806 38.58 154.158 38.748C153.534 38.916 152.958 39.06 152.43 39.18C151.926 39.324 151.578 39.396 151.386 39.396C150.09 39.396 148.938 39.108 147.93 38.532C146.922 37.932 146.13 37.056 145.554 35.904C145.002 34.752 144.726 33.348 144.726 31.692C144.726 30.54 144.81 29.448 144.978 28.416C145.17 27.384 145.386 26.604 145.626 26.076C145.842 25.788 146.226 25.428 146.778 24.996C147.354 24.564 147.978 24.144 148.65 23.736C149.322 23.304 149.946 22.944 150.522 22.656C151.098 22.344 151.518 22.188 151.782 22.188C153.174 22.188 154.326 22.428 155.238 22.908C156.174 23.388 156.882 24.252 157.362 25.5C157.842 26.748 158.058 28.56 158.01 30.936L147.642 32.016V30.072L153.438 29.064C153.438 27.744 153.306 26.7 153.042 25.932C152.802 25.164 152.358 24.744 151.71 24.672C151.566 24.648 151.374 24.636 151.134 24.636C150.894 24.636 150.69 24.672 150.522 24.744C150.258 24.912 150.03 25.572 149.838 26.724C149.646 27.852 149.55 29.34 149.55 31.188ZM162.683 44.796C162.611 44.796 162.443 44.7 162.179 44.508C161.939 44.316 161.699 44.1 161.459 43.86C161.243 43.644 161.135 43.5 161.135 43.428V24.996L159.263 24.888V23.736L161.135 22.728V21.072C161.135 20.688 161.339 20.184 161.747 19.56C162.155 18.936 162.659 18.312 163.259 17.688C163.859 17.064 164.435 16.536 164.987 16.104C165.563 15.648 166.031 15.42 166.391 15.42C166.535 15.42 166.859 15.432 167.363 15.456C167.891 15.48 168.455 15.516 169.055 15.564C169.655 15.588 170.159 15.624 170.567 15.672C170.711 15.768 170.867 15.996 171.035 16.356C171.227 16.716 171.323 16.956 171.323 17.076C171.323 17.1 171.275 17.232 171.179 17.472C171.107 17.712 170.999 17.988 170.855 18.3C170.735 18.588 170.627 18.852 170.531 19.092C170.435 19.332 170.363 19.476 170.315 19.524C170.147 19.476 169.871 19.38 169.487 19.236C169.103 19.068 168.695 18.924 168.263 18.804C167.855 18.66 167.471 18.54 167.111 18.444C166.775 18.324 166.547 18.264 166.427 18.264C166.331 18.264 166.235 18.336 166.139 18.48C166.067 18.624 165.995 18.84 165.923 19.128C165.875 19.392 165.851 19.692 165.851 20.028L165.815 22.62H169.487V25.464L165.815 25.14L165.671 38.352L166.319 43.104C165.935 43.344 165.479 43.596 164.951 43.86C164.423 44.124 163.943 44.34 163.511 44.508C163.079 44.7 162.803 44.796 162.683 44.796ZM170.926 36.336C170.926 36.264 171.046 36.12 171.286 35.904C171.55 35.664 171.85 35.412 172.186 35.148C172.546 34.884 172.87 34.656 173.158 34.464C173.446 34.248 173.614 34.14 173.662 34.14C173.782 34.14 173.974 34.26 174.238 34.5C174.526 34.74 174.826 35.028 175.138 35.364C175.45 35.676 175.702 35.976 175.894 36.264C176.11 36.552 176.206 36.744 176.182 36.84L175.966 37.704C175.966 37.8 175.834 37.968 175.57 38.208C175.33 38.424 175.042 38.664 174.706 38.928C174.37 39.168 174.058 39.372 173.77 39.54C173.482 39.732 173.29 39.828 173.194 39.828C173.074 39.828 172.87 39.708 172.582 39.468C172.318 39.252 172.042 38.988 171.754 38.676C171.466 38.34 171.226 38.028 171.034 37.74C170.842 37.452 170.746 37.26 170.746 37.164L170.926 36.336ZM180.348 19.92L178.368 19.2V17.22C178.776 17.172 179.256 17.124 179.808 17.076C180.384 17.004 180.948 16.944 181.5 16.896C182.076 16.824 182.568 16.776 182.976 16.752C183.408 16.704 183.684 16.692 183.804 16.716C184.02 16.788 184.224 16.932 184.416 17.148C184.632 17.34 184.824 17.556 184.992 17.796C185.16 18.036 185.256 18.216 185.28 18.336V36.228L187.944 36.948L186.936 38.892C186.552 38.916 186.084 38.964 185.532 39.036C185.004 39.108 184.476 39.168 183.948 39.216C183.444 39.288 183 39.336 182.616 39.36C182.232 39.408 181.98 39.42 181.86 39.396C181.668 39.324 181.452 39.192 181.212 39C180.996 38.784 180.804 38.568 180.636 38.352C180.492 38.112 180.396 37.932 180.348 37.812V19.92ZM188.448 16.68H191.76C192.96 16.68 193.968 16.932 194.784 17.436C195.624 17.916 196.26 18.72 196.692 19.848C197.124 20.952 197.34 22.464 197.34 24.384C197.34 24.984 197.316 25.56 197.268 26.112C197.22 26.664 197.124 27.144 196.98 27.552C196.884 27.768 196.668 28.056 196.332 28.416C195.996 28.776 195.588 29.16 195.108 29.568C194.652 29.952 194.184 30.324 193.704 30.684C193.224 31.02 192.792 31.296 192.408 31.512C192.024 31.704 191.736 31.8 191.544 31.8C190.944 31.8 190.356 31.764 189.78 31.692C189.204 31.62 188.616 31.548 188.016 31.476L187.98 28.236L191.436 29.28C191.58 29.304 191.712 29.22 191.832 29.028C191.952 28.812 192.06 28.512 192.156 28.128C192.252 27.72 192.324 27.228 192.372 26.652C192.444 26.052 192.48 25.38 192.48 24.636C192.48 22.836 192.336 21.468 192.048 20.532C191.784 19.572 191.292 19.14 190.572 19.236L188.016 19.524L188.448 16.68ZM187.656 16.68H188.808V34.896C188.808 35.04 188.724 35.304 188.556 35.688C188.412 36.048 188.208 36.468 187.944 36.948H186.9V19.272C186.9 19.056 186.972 18.708 187.116 18.228C187.284 17.748 187.464 17.232 187.656 16.68ZM201.285 39.396C201.213 39.396 201.045 39.3 200.781 39.108C200.541 38.916 200.313 38.712 200.097 38.496C199.881 38.256 199.773 38.088 199.773 37.992V25.284L198.369 24.816V22.908C198.369 22.908 198.573 22.872 198.981 22.8C199.389 22.728 199.869 22.656 200.421 22.584C200.973 22.488 201.489 22.404 201.969 22.332C202.449 22.236 202.749 22.188 202.869 22.188C202.941 22.188 203.097 22.296 203.337 22.512C203.577 22.728 203.793 22.956 203.985 23.196C204.201 23.412 204.309 23.568 204.309 23.664L204.273 25.212C204.561 24.876 204.861 24.54 205.173 24.204C205.485 23.844 205.785 23.52 206.073 23.232C206.385 22.92 206.637 22.668 206.829 22.476C207.045 22.284 207.177 22.188 207.225 22.188C207.633 22.188 208.101 22.248 208.629 22.368C209.157 22.464 209.541 22.56 209.781 22.656C209.829 22.8 209.901 23.028 209.997 23.34C210.117 23.652 210.177 23.94 210.177 24.204C210.177 24.324 210.105 24.552 209.961 24.888C209.841 25.224 209.697 25.572 209.529 25.932C209.361 26.268 209.193 26.568 209.025 26.832C208.881 27.096 208.773 27.228 208.701 27.228C208.629 27.18 208.461 27.108 208.197 27.012C207.933 26.892 207.645 26.784 207.333 26.688C207.045 26.568 206.793 26.508 206.577 26.508C206.505 26.508 206.373 26.532 206.181 26.58C206.013 26.628 205.821 26.7 205.605 26.796C205.413 26.892 205.209 26.988 204.993 27.084C204.777 27.156 204.597 27.24 204.453 27.336V35.94L206.685 36.588V38.604C206.685 38.604 206.517 38.628 206.181 38.676C205.845 38.724 205.425 38.796 204.921 38.892C204.441 38.964 203.937 39.036 203.409 39.108C202.881 39.204 202.413 39.276 202.005 39.324C201.621 39.372 201.381 39.396 201.285 39.396ZM218.957 39.396C216.317 39.396 214.289 38.772 212.873 37.524C211.481 36.252 210.785 34.26 210.785 31.548C210.785 30.492 210.869 29.448 211.037 28.416C211.229 27.384 211.445 26.616 211.685 26.112C211.901 25.824 212.297 25.464 212.873 25.032C213.449 24.6 214.073 24.168 214.745 23.736C215.417 23.304 216.041 22.944 216.617 22.656C217.217 22.344 217.649 22.188 217.913 22.188C220.553 22.188 222.545 22.86 223.889 24.204C225.257 25.548 225.941 27.468 225.941 29.964C225.941 31.14 225.845 32.232 225.653 33.24C225.485 34.248 225.293 35.04 225.077 35.616C224.837 35.88 224.441 36.228 223.889 36.66C223.337 37.068 222.725 37.488 222.053 37.92C221.381 38.328 220.757 38.676 220.181 38.964C219.629 39.252 219.221 39.396 218.957 39.396ZM219.029 36.912C219.125 36.888 219.281 36.828 219.497 36.732C219.737 36.612 219.965 36.504 220.181 36.408C220.397 36.288 220.505 36.228 220.505 36.228C220.601 35.676 220.697 34.944 220.793 34.032C220.913 33.12 220.973 31.932 220.973 30.468C220.973 29.412 220.865 28.452 220.649 27.588C220.433 26.724 220.085 26.028 219.605 25.5C219.149 24.972 218.525 24.708 217.733 24.708C217.565 24.708 217.397 24.72 217.229 24.744C217.061 24.744 216.893 24.792 216.725 24.888C216.461 25.008 216.233 25.62 216.041 26.724C215.849 27.804 215.753 29.232 215.753 31.008C215.753 32.616 215.921 33.84 216.257 34.68C216.593 35.52 217.013 36.108 217.517 36.444C218.021 36.756 218.525 36.912 219.029 36.912Z" fill="#045200"/>
<line x1="10" y1="52.5" x2="236" y2="52.5" stroke="#C3C3C3"/>
<path d="M46.3256 82V62.8H53.4056V63.202H46.7936V82H46.3256ZM48.1856 82V72.916H53.1656V73.324H48.6536V82H48.1856ZM47.2556 82V63.61H53.4056V64.012H47.7236V72.112H53.1656V72.514H47.7236V82H47.2556ZM48.1856 71.704V64.414H53.4056V64.822H48.6536V71.302H53.1656V71.704H48.1856ZM58.8527 82.192C57.4567 82.192 56.4527 81.898 55.8407 81.31C55.2327 80.722 54.8947 79.772 54.8267 78.46C54.7907 77.66 54.7647 76.866 54.7487 76.078C54.7327 75.29 54.7307 74.49 54.7427 73.678C54.7547 72.862 54.7827 72.016 54.8267 71.14C54.8947 69.776 55.2487 68.814 55.8887 68.254C56.5327 67.69 57.5207 67.408 58.8527 67.408C60.2087 67.408 61.1987 67.696 61.8227 68.272C62.4507 68.844 62.7987 69.802 62.8667 71.146C62.9227 72.386 62.9507 73.614 62.9507 74.83C62.9547 76.046 62.9267 77.256 62.8667 78.46C62.7947 79.824 62.4367 80.788 61.7927 81.352C61.1527 81.912 60.1727 82.192 58.8527 82.192ZM58.8527 81.82C60.0487 81.82 60.9227 81.558 61.4747 81.034C62.0267 80.51 62.3347 79.642 62.3987 78.43C62.4587 77.286 62.4887 76.122 62.4887 74.938C62.4927 73.75 62.4627 72.494 62.3987 71.17C62.3387 69.958 62.0327 69.09 61.4807 68.566C60.9327 68.042 60.0567 67.78 58.8527 67.78C57.6487 67.78 56.7687 68.04 56.2127 68.56C55.6607 69.08 55.3527 69.95 55.2887 71.17C55.2447 72.086 55.2167 72.948 55.2047 73.756C55.1927 74.564 55.1947 75.35 55.2107 76.114C55.2267 76.874 55.2527 77.648 55.2887 78.436C55.3487 79.636 55.6527 80.5 56.2007 81.028C56.7527 81.556 57.6367 81.82 58.8527 81.82ZM58.8527 81.448C57.7807 81.448 57.0087 81.208 56.5367 80.728C56.0687 80.248 55.8067 79.472 55.7507 78.4C55.7147 77.588 55.6887 76.798 55.6727 76.03C55.6567 75.262 55.6547 74.482 55.6667 73.69C55.6827 72.898 55.7127 72.066 55.7567 71.194C55.8127 70.09 56.0847 69.308 56.5727 68.848C57.0607 68.384 57.8207 68.152 58.8527 68.152C59.8887 68.152 60.6467 68.386 61.1267 68.854C61.6107 69.318 61.8787 70.096 61.9307 71.188C61.9707 72.036 61.9967 72.854 62.0087 73.642C62.0247 74.43 62.0267 75.214 62.0147 75.994C62.0027 76.77 61.9747 77.574 61.9307 78.406C61.8787 79.49 61.6127 80.268 61.1327 80.74C60.6527 81.212 59.8927 81.448 58.8527 81.448ZM58.8527 81.076C59.7367 81.076 60.3807 80.868 60.7847 80.452C61.1887 80.032 61.4167 79.336 61.4687 78.364C61.5287 77.208 61.5587 76.066 61.5587 74.938C61.5627 73.806 61.5327 72.568 61.4687 71.224C61.4247 70.232 61.1927 69.534 60.7727 69.13C60.3567 68.726 59.7167 68.524 58.8527 68.524C57.9447 68.524 57.2907 68.738 56.8907 69.166C56.4907 69.594 56.2667 70.282 56.2187 71.23C56.1827 72.042 56.1567 72.832 56.1407 73.6C56.1247 74.364 56.1227 75.138 56.1347 75.922C56.1507 76.706 56.1787 77.528 56.2187 78.388C56.2667 79.352 56.4947 80.042 56.9027 80.458C57.3147 80.87 57.9647 81.076 58.8527 81.076ZM58.8527 80.704C58.1207 80.704 57.5867 80.524 57.2507 80.164C56.9147 79.8 56.7247 79.204 56.6807 78.376C56.6447 77.536 56.6187 76.734 56.6027 75.97C56.5867 75.202 56.5847 74.432 56.5967 73.66C56.6127 72.888 56.6407 72.082 56.6807 71.242C56.7247 70.39 56.9187 69.786 57.2627 69.43C57.6067 69.074 58.1367 68.896 58.8527 68.896C59.5807 68.896 60.1107 69.078 60.4427 69.442C60.7787 69.802 60.9667 70.402 61.0067 71.242C61.0707 72.606 61.0987 73.852 61.0907 74.98C61.0867 76.108 61.0587 77.232 61.0067 78.352C60.9627 79.196 60.7727 79.8 60.4367 80.164C60.1007 80.524 59.5727 80.704 58.8527 80.704ZM58.8527 80.332C59.4207 80.332 59.8347 80.176 60.0947 79.864C60.3547 79.552 60.5027 79.042 60.5387 78.334C60.5947 77.182 60.6247 76.06 60.6287 74.968C60.6327 73.876 60.6027 72.642 60.5387 71.266C60.5067 70.566 60.3607 70.058 60.1007 69.742C59.8447 69.426 59.4287 69.268 58.8527 69.268C58.2687 69.268 57.8467 69.428 57.5867 69.748C57.3307 70.064 57.1847 70.568 57.1487 71.26C57.1087 72.112 57.0807 72.918 57.0647 73.678C57.0527 74.434 57.0527 75.19 57.0647 75.946C57.0807 76.702 57.1087 77.506 57.1487 78.358C57.1847 79.046 57.3327 79.548 57.5927 79.864C57.8567 80.176 58.2767 80.332 58.8527 80.332ZM68.3808 82.204C67.7848 82.204 67.2908 82.122 66.8988 81.958C66.5068 81.794 66.1928 81.576 65.9568 81.304C65.7248 81.028 65.5508 80.726 65.4348 80.398C65.3188 80.07 65.2428 79.74 65.2068 79.408C65.1708 79.072 65.1528 78.76 65.1528 78.472V67.6H65.6148V78.4C65.6148 78.736 65.6428 79.1 65.6988 79.492C65.7548 79.884 65.8768 80.256 66.0648 80.608C66.2528 80.96 66.5408 81.248 66.9288 81.472C67.3208 81.692 67.8508 81.802 68.5188 81.802C69.2588 81.802 69.8928 81.65 70.4208 81.346C70.9528 81.038 71.3768 80.62 71.6928 80.092H71.8008L71.6028 81.496V82H71.1348V81.802L71.3928 80.896H71.3028C70.9468 81.356 70.5248 81.69 70.0368 81.898C69.5488 82.102 68.9968 82.204 68.3808 82.204ZM72.9468 82V67.6H73.4148V82H72.9468ZM68.9028 80.566C68.4588 80.566 68.1088 80.49 67.8528 80.338C67.5968 80.182 67.4068 79.984 67.2828 79.744C67.1628 79.504 67.0848 79.252 67.0488 78.988C67.0168 78.72 67.0008 78.474 67.0008 78.25V67.6H67.4628V78.226C67.4628 78.53 67.4948 78.832 67.5588 79.132C67.6268 79.428 67.7668 79.676 67.9788 79.876C68.1948 80.072 68.5248 80.17 68.9688 80.17C69.3568 80.17 69.7088 80.082 70.0248 79.906C70.3408 79.726 70.5928 79.478 70.7808 79.162C70.9688 78.846 71.0628 78.48 71.0628 78.064V67.6H71.5488V78.028C71.5488 78.496 71.4348 78.924 71.2068 79.312C70.9828 79.696 70.6708 80.002 70.2708 80.23C69.8748 80.454 69.4188 80.566 68.9028 80.566ZM68.6448 81.4C67.7568 81.392 67.1068 81.14 66.6948 80.644C66.2828 80.144 66.0768 79.388 66.0768 78.376V67.6H66.5388V78.322C66.5388 79.198 66.7108 79.864 67.0548 80.32C67.4028 80.776 67.9828 81.004 68.7948 81.004C69.4468 81.004 70.0128 80.86 70.4928 80.572C70.9728 80.284 71.3428 79.91 71.6028 79.45C71.8668 78.99 71.9988 78.506 71.9988 77.998V67.6H72.4788V82H72.0288V80.776L72.1068 79.078H71.9928C71.7168 79.826 71.2848 80.402 70.6968 80.806C70.1088 81.206 69.4248 81.404 68.6448 81.4ZM83.7832 82V71.2C83.7832 70.86 83.7552 70.494 83.6992 70.102C83.6432 69.71 83.5192 69.34 83.3272 68.992C83.1392 68.64 82.8492 68.354 82.4572 68.134C82.0692 67.91 81.5432 67.798 80.8792 67.798C80.1592 67.798 79.5312 67.948 78.9952 68.248C78.4592 68.548 78.0272 68.968 77.6992 69.508H77.5912L77.8012 67.6H78.2692V67.816L77.9872 68.704H78.0892C78.4532 68.248 78.8772 67.916 79.3612 67.708C79.8492 67.5 80.3992 67.396 81.0112 67.396C81.6072 67.396 82.1012 67.478 82.4932 67.642C82.8852 67.806 83.1972 68.026 83.4292 68.302C83.6652 68.574 83.8412 68.874 83.9572 69.202C84.0772 69.53 84.1552 69.862 84.1912 70.198C84.2272 70.53 84.2452 70.84 84.2452 71.128V82H83.7832ZM75.9832 82V67.6H76.4452V82H75.9832ZM77.8432 82V71.572C77.8432 71.1 77.9552 70.672 78.1792 70.288C78.4072 69.904 78.7192 69.6 79.1152 69.376C79.5152 69.148 79.9732 69.034 80.4892 69.034C80.9172 69.034 81.2592 69.106 81.5152 69.25C81.7712 69.394 81.9612 69.582 82.0852 69.814C82.2132 70.046 82.2972 70.298 82.3372 70.57C82.3772 70.838 82.3972 71.098 82.3972 71.35V82H81.9292V71.374C81.9292 71.062 81.8972 70.758 81.8332 70.462C81.7692 70.166 81.6292 69.92 81.4132 69.724C81.2012 69.528 80.8732 69.43 80.4292 69.43C80.0412 69.43 79.6872 69.52 79.3672 69.7C79.0512 69.876 78.7992 70.122 78.6112 70.438C78.4272 70.75 78.3332 71.116 78.3292 71.536L78.3052 82H77.8432ZM76.9132 82V67.6H77.3752L77.2852 70.522H77.3932C77.6692 69.79 78.0972 69.22 78.6772 68.812C79.2572 68.4 79.9452 68.196 80.7412 68.2C81.6692 68.208 82.3312 68.472 82.7272 68.992C83.1232 69.508 83.3212 70.252 83.3212 71.224V82H82.8532V71.278C82.8532 70.398 82.6792 69.732 82.3312 69.28C81.9872 68.824 81.4092 68.596 80.5972 68.596C79.9492 68.596 79.3832 68.74 78.8992 69.028C78.4192 69.316 78.0472 69.69 77.7832 70.15C77.5192 70.606 77.3872 71.09 77.3872 71.602V82H76.9132ZM94.745 82H94.277V62.8H94.745V82ZM93.815 82H93.383L93.467 78.826L93.371 78.82C93.211 79.624 92.833 80.266 92.237 80.746C91.641 81.222 90.939 81.46 90.131 81.46C89.291 81.46 88.661 81.224 88.241 80.752C87.825 80.28 87.577 79.478 87.497 78.346C87.457 77.614 87.427 76.866 87.407 76.102C87.391 75.334 87.391 74.544 87.407 73.732C87.423 72.92 87.455 72.076 87.503 71.2C87.567 70.084 87.835 69.298 88.307 68.842C88.783 68.386 89.495 68.158 90.443 68.158C91.183 68.158 91.799 68.384 92.291 68.836C92.783 69.284 93.125 69.894 93.317 70.666H93.425L93.347 67.108V62.8H93.815V82ZM90.341 81.088C90.885 81.088 91.371 80.964 91.799 80.716C92.227 80.464 92.571 80.114 92.831 79.666C93.091 79.218 93.235 78.698 93.263 78.106C93.299 77.402 93.325 76.66 93.341 75.88C93.361 75.096 93.367 74.324 93.359 73.564C93.351 72.8 93.325 72.104 93.281 71.476C93.237 70.888 93.101 70.374 92.873 69.934C92.649 69.494 92.341 69.152 91.949 68.908C91.561 68.66 91.095 68.536 90.551 68.536C89.691 68.536 89.057 68.74 88.649 69.148C88.241 69.556 88.013 70.244 87.965 71.212C87.925 72.124 87.899 72.968 87.887 73.744C87.875 74.52 87.875 75.28 87.887 76.024C87.903 76.768 87.929 77.546 87.965 78.358C88.013 79.334 88.221 80.034 88.589 80.458C88.957 80.878 89.541 81.088 90.341 81.088ZM90.461 80.704C89.773 80.704 89.271 80.522 88.955 80.158C88.639 79.79 88.463 79.184 88.427 78.34C88.395 77.532 88.373 76.752 88.361 76C88.349 75.248 88.349 74.482 88.361 73.702C88.373 72.922 88.395 72.088 88.427 71.2C88.463 70.4 88.645 69.816 88.973 69.448C89.301 69.076 89.843 68.89 90.599 68.89C91.319 68.89 91.859 69.116 92.219 69.568C92.583 70.016 92.785 70.65 92.825 71.47C92.853 72.046 92.871 72.706 92.879 73.45C92.891 74.19 92.893 74.962 92.885 75.766C92.877 76.566 92.857 77.346 92.825 78.106C92.789 78.85 92.577 79.47 92.189 79.966C91.805 80.458 91.229 80.704 90.461 80.704ZM90.467 80.332C91.075 80.332 91.533 80.12 91.841 79.696C92.153 79.268 92.327 78.736 92.363 78.1C92.391 77.504 92.409 76.824 92.417 76.06C92.429 75.296 92.431 74.516 92.423 73.72C92.415 72.92 92.395 72.17 92.363 71.47C92.327 70.742 92.163 70.194 91.871 69.826C91.583 69.454 91.161 69.268 90.605 69.268C90.037 69.268 89.617 69.416 89.345 69.712C89.077 70.008 88.927 70.502 88.895 71.194C88.839 72.49 88.811 73.702 88.811 74.83C88.811 75.954 88.837 77.126 88.889 78.346C88.925 79.078 89.069 79.592 89.321 79.888C89.577 80.184 89.959 80.332 90.467 80.332ZM89.927 82.192C88.803 82.192 87.987 81.888 87.479 81.28C86.971 80.672 86.671 79.698 86.579 78.358C86.531 77.562 86.497 76.786 86.477 76.03C86.461 75.27 86.461 74.496 86.477 73.708C86.497 72.92 86.531 72.084 86.579 71.2C86.667 69.848 86.999 68.878 87.575 68.29C88.155 67.702 89.031 67.408 90.203 67.408C90.779 67.408 91.283 67.522 91.715 67.75C92.147 67.978 92.477 68.27 92.705 68.626H92.819L92.417 65.824V62.8H92.909V66.274L93.167 69.43H93.023C92.723 68.858 92.337 68.442 91.865 68.182C91.393 67.918 90.883 67.786 90.335 67.786C89.307 67.786 88.519 68.04 87.971 68.548C87.427 69.052 87.117 69.934 87.041 71.194C86.993 72.094 86.961 72.944 86.945 73.744C86.929 74.54 86.929 75.316 86.945 76.072C86.965 76.824 86.997 77.59 87.041 78.37C87.125 79.626 87.403 80.516 87.875 81.04C88.351 81.564 89.069 81.826 90.029 81.826C90.645 81.826 91.225 81.674 91.769 81.37C92.313 81.062 92.737 80.638 93.041 80.098H93.149L93.029 82H92.579L92.585 81.838L92.759 80.968H92.663C92.379 81.34 91.995 81.638 91.511 81.862C91.027 82.082 90.499 82.192 89.927 82.192ZM101.097 82.192C99.7733 82.192 98.7913 81.936 98.1513 81.424C97.5153 80.912 97.1693 80.036 97.1133 78.796C97.0853 78.172 97.0653 77.51 97.0533 76.81C97.0413 76.106 97.0353 75.398 97.0353 74.686C97.0393 73.97 97.0473 73.284 97.0593 72.628C97.0713 71.968 97.0893 71.37 97.1133 70.834C97.1773 69.582 97.5253 68.698 98.1573 68.182C98.7893 67.666 99.7593 67.408 101.067 67.408C102.379 67.408 103.337 67.664 103.941 68.176C104.549 68.688 104.881 69.554 104.937 70.774C104.945 70.894 104.951 71.132 104.955 71.488C104.959 71.84 104.961 72.254 104.961 72.73C104.965 73.206 104.963 73.692 104.955 74.188C104.947 74.68 104.931 75.128 104.907 75.532H99.3693C99.3733 75.92 99.3773 76.29 99.3813 76.642C99.3853 76.99 99.3913 77.33 99.3993 77.662C99.4113 77.99 99.4213 78.32 99.4293 78.652C99.4573 79.252 99.5993 79.682 99.8553 79.942C100.115 80.202 100.529 80.332 101.097 80.332C101.581 80.332 101.947 80.21 102.195 79.966C102.443 79.718 102.583 79.29 102.615 78.682C102.627 78.418 102.631 78.114 102.627 77.77C102.627 77.426 102.617 77.11 102.597 76.822H103.065C103.085 77.142 103.095 77.478 103.095 77.83C103.095 78.178 103.089 78.468 103.077 78.7C103.041 79.416 102.867 79.93 102.555 80.242C102.247 80.55 101.761 80.704 101.097 80.704C100.369 80.704 99.8393 80.546 99.5073 80.23C99.1793 79.914 98.9993 79.396 98.9673 78.676C98.9513 78.292 98.9373 77.902 98.9253 77.506C98.9173 77.11 98.9113 76.714 98.9073 76.318C98.9033 75.918 98.8993 75.528 98.8953 75.148H104.463C104.479 74.74 104.489 74.308 104.493 73.852C104.497 73.396 104.497 72.958 104.493 72.538C104.493 72.118 104.491 71.752 104.487 71.44C104.483 71.128 104.477 70.912 104.469 70.792C104.421 69.712 104.133 68.94 103.605 68.476C103.081 68.012 102.235 67.78 101.067 67.78C99.9153 67.78 99.0573 68.014 98.4933 68.482C97.9333 68.946 97.6253 69.746 97.5693 70.882C97.5493 71.358 97.5333 71.92 97.5213 72.568C97.5093 73.216 97.5033 73.902 97.5033 74.626C97.5033 75.346 97.5073 76.062 97.5153 76.774C97.5273 77.482 97.5453 78.136 97.5693 78.736C97.6213 79.828 97.9173 80.616 98.4573 81.1C98.9973 81.58 99.8773 81.82 101.097 81.82C102.237 81.82 103.071 81.586 103.599 81.118C104.127 80.646 104.417 79.86 104.469 78.76C104.477 78.592 104.483 78.394 104.487 78.166C104.491 77.938 104.489 77.706 104.481 77.47C104.477 77.234 104.467 77.018 104.451 76.822H104.919C104.943 77.114 104.955 77.448 104.955 77.824C104.955 78.2 104.949 78.518 104.937 78.778C104.877 79.998 104.549 80.872 103.953 81.4C103.357 81.928 102.405 82.192 101.097 82.192ZM101.097 81.448C100.069 81.448 99.3133 81.242 98.8293 80.83C98.3453 80.414 98.0813 79.714 98.0373 78.73C98.0173 78.19 98.0013 77.58 97.9893 76.9C97.9773 76.22 97.9713 75.52 97.9713 74.8C97.9713 74.076 97.9753 73.378 97.9833 72.706C97.9953 72.034 98.0133 71.438 98.0373 70.918C98.0853 69.89 98.3553 69.172 98.8473 68.764C99.3433 68.356 100.083 68.152 101.067 68.152C102.067 68.152 102.795 68.356 103.251 68.764C103.711 69.172 103.963 69.852 104.007 70.804C104.015 70.948 104.021 71.232 104.025 71.656C104.033 72.076 104.035 72.564 104.031 73.12C104.031 73.672 104.021 74.222 104.001 74.77H98.4333C98.4333 75.466 98.4393 76.158 98.4513 76.846C98.4633 77.534 98.4793 78.148 98.4993 78.688C98.5393 79.556 98.7633 80.172 99.1713 80.536C99.5833 80.896 100.225 81.076 101.097 81.076C101.897 81.076 102.493 80.9 102.885 80.548C103.281 80.196 103.499 79.59 103.539 78.73C103.551 78.482 103.557 78.178 103.557 77.818C103.557 77.458 103.547 77.126 103.527 76.822H103.995C104.015 77.13 104.025 77.464 104.025 77.824C104.025 78.18 104.019 78.486 104.007 78.742C103.959 79.706 103.709 80.398 103.257 80.818C102.809 81.238 102.089 81.448 101.097 81.448ZM98.4333 74.392H103.551C103.563 73.908 103.569 73.424 103.569 72.94C103.569 72.452 103.565 72.018 103.557 71.638C103.553 71.254 103.547 70.982 103.539 70.822C103.507 70.006 103.297 69.42 102.909 69.064C102.525 68.704 101.911 68.524 101.067 68.524C100.207 68.524 99.5753 68.708 99.1713 69.076C98.7673 69.444 98.5433 70.066 98.4993 70.942C98.4793 71.426 98.4633 71.972 98.4513 72.58C98.4433 73.188 98.4373 73.792 98.4333 74.392ZM98.9073 74.014C98.9073 73.754 98.9093 73.444 98.9133 73.084C98.9213 72.724 98.9293 72.358 98.9373 71.986C98.9453 71.614 98.9553 71.274 98.9673 70.966C99.0033 70.218 99.1873 69.686 99.5193 69.37C99.8513 69.054 100.367 68.896 101.067 68.896C101.751 68.896 102.249 69.046 102.561 69.346C102.873 69.646 103.045 70.142 103.077 70.834C103.085 70.99 103.091 71.238 103.095 71.578C103.099 71.918 103.101 72.302 103.101 72.73C103.101 73.158 103.095 73.586 103.083 74.014H98.9073ZM99.3753 73.636H102.621C102.629 73.232 102.633 72.84 102.633 72.46C102.633 72.08 102.631 71.748 102.627 71.464C102.623 71.18 102.619 70.984 102.615 70.876C102.591 70.32 102.463 69.914 102.231 69.658C102.003 69.398 101.615 69.268 101.067 69.268C100.503 69.268 100.095 69.406 99.8433 69.682C99.5953 69.954 99.4573 70.388 99.4293 70.984C99.4213 71.288 99.4133 71.586 99.4053 71.878C99.3973 72.166 99.3913 72.454 99.3873 72.742C99.3833 73.03 99.3793 73.328 99.3753 73.636ZM108.062 82V67.6H108.524V68.824L108.416 70.522H108.542C108.81 69.798 109.236 69.256 109.82 68.896C110.408 68.532 111.094 68.35 111.878 68.35C112.082 68.35 112.308 68.356 112.556 68.368C112.804 68.376 112.984 68.384 113.096 68.392V68.794C112.952 68.782 112.746 68.774 112.478 68.77C112.21 68.762 111.974 68.758 111.77 68.758C111.102 68.758 110.526 68.894 110.042 69.166C109.562 69.438 109.192 69.792 108.932 70.228C108.676 70.66 108.548 71.12 108.548 71.608V82H108.062ZM107.132 82V67.6H107.594V82H107.132ZM108.992 82V71.572C108.992 70.856 109.244 70.282 109.748 69.85C110.252 69.414 110.866 69.196 111.59 69.196C111.838 69.196 112.098 69.198 112.37 69.202C112.642 69.202 112.884 69.204 113.096 69.208V69.61C112.888 69.602 112.644 69.598 112.364 69.598C112.088 69.598 111.83 69.598 111.59 69.598C111.01 69.598 110.512 69.762 110.096 70.09C109.684 70.414 109.478 70.896 109.478 71.536V82H108.992ZM108.746 69.508L108.992 68.104V67.6H109.454V67.798L109.154 68.704H109.238C109.534 68.3 109.948 68.006 110.48 67.822C111.016 67.638 111.552 67.546 112.088 67.546C112.224 67.546 112.388 67.55 112.58 67.558C112.772 67.562 112.944 67.572 113.096 67.588V67.99C112.972 67.978 112.818 67.968 112.634 67.96C112.45 67.952 112.27 67.948 112.094 67.948C111.378 67.948 110.738 68.074 110.174 68.326C109.614 68.578 109.172 68.972 108.848 69.508H108.746ZM115.097 67.378L115.313 64.876H114.515V64.462H115.733V64.876L115.415 67.378H115.097ZM115.733 67.378L116.147 64.876V64.048H114.515V63.634H116.561V64.876L116.051 67.378H115.733ZM116.369 67.378L116.975 64.876V63.214H114.515V62.8H117.395V64.876L116.687 67.378H116.369ZM122.872 82.192C121.628 82.192 120.716 81.932 120.136 81.412C119.56 80.892 119.248 80.014 119.2 78.778C119.188 78.45 119.182 78.126 119.182 77.806C119.182 77.486 119.192 77.18 119.212 76.888H119.65C119.634 77.152 119.624 77.454 119.62 77.794C119.62 78.13 119.626 78.452 119.638 78.76C119.682 79.872 119.96 80.66 120.472 81.124C120.984 81.588 121.784 81.82 122.872 81.82C124.088 81.82 124.958 81.586 125.482 81.118C126.01 80.65 126.286 79.89 126.31 78.838C126.318 78.638 126.322 78.476 126.322 78.352C126.322 78.224 126.322 78.098 126.322 77.974C126.322 77.85 126.322 77.69 126.322 77.494C126.322 76.53 126.104 75.828 125.668 75.388C125.236 74.948 124.608 74.61 123.784 74.374L122.602 74.032C122.254 73.928 121.958 73.812 121.714 73.684C121.474 73.556 121.288 73.366 121.156 73.114C121.028 72.858 120.954 72.494 120.934 72.022C120.926 71.786 120.918 71.59 120.91 71.434C120.902 71.278 120.902 71.092 120.91 70.876C120.93 70.204 121.096 69.706 121.408 69.382C121.724 69.058 122.244 68.896 122.968 68.896C123.596 68.896 124.068 69.052 124.384 69.364C124.7 69.672 124.872 70.186 124.9 70.906C124.908 71.062 124.91 71.3 124.906 71.62C124.906 71.936 124.896 72.272 124.876 72.628H124.444C124.46 72.3 124.468 71.966 124.468 71.626C124.472 71.282 124.47 71.048 124.462 70.924C124.43 70.348 124.29 69.928 124.042 69.664C123.794 69.4 123.436 69.268 122.968 69.268C122.444 69.268 122.048 69.394 121.78 69.646C121.512 69.894 121.37 70.304 121.354 70.876C121.346 71.104 121.344 71.296 121.348 71.452C121.352 71.608 121.362 71.796 121.378 72.016C121.402 72.408 121.462 72.706 121.558 72.91C121.654 73.114 121.798 73.266 121.99 73.366C122.182 73.466 122.428 73.562 122.728 73.654L123.892 73.996C124.508 74.172 125.03 74.396 125.458 74.668C125.886 74.936 126.21 75.294 126.43 75.742C126.65 76.19 126.76 76.774 126.76 77.494C126.76 77.694 126.76 77.858 126.76 77.986C126.764 78.11 126.764 78.234 126.76 78.358C126.76 78.482 126.756 78.642 126.748 78.838C126.724 80.006 126.42 80.858 125.836 81.394C125.256 81.926 124.268 82.192 122.872 82.192ZM122.872 81.448C121.932 81.448 121.24 81.244 120.796 80.836C120.356 80.424 120.118 79.726 120.082 78.742C120.07 78.446 120.064 78.13 120.064 77.794C120.064 77.458 120.07 77.156 120.082 76.888H120.52C120.508 77.156 120.502 77.456 120.502 77.788C120.506 78.116 120.512 78.428 120.52 78.724C120.552 79.584 120.756 80.192 121.132 80.548C121.508 80.9 122.088 81.076 122.872 81.076C123.752 81.076 124.392 80.904 124.792 80.56C125.192 80.216 125.402 79.636 125.422 78.82C125.43 78.576 125.434 78.358 125.434 78.166C125.434 77.97 125.434 77.746 125.434 77.494C125.434 76.73 125.272 76.188 124.948 75.868C124.628 75.544 124.168 75.298 123.568 75.13L122.362 74.788C121.878 74.648 121.47 74.486 121.138 74.302C120.806 74.118 120.55 73.852 120.37 73.504C120.19 73.152 120.082 72.662 120.046 72.034C120.034 71.81 120.026 71.604 120.022 71.416C120.022 71.224 120.022 71.04 120.022 70.864C120.01 69.904 120.24 69.212 120.712 68.788C121.184 68.364 121.936 68.152 122.968 68.152C123.932 68.152 124.628 68.368 125.056 68.8C125.488 69.232 125.728 69.91 125.776 70.834C125.788 71.026 125.792 71.298 125.788 71.65C125.788 72.002 125.774 72.328 125.746 72.628H125.314C125.33 72.332 125.34 72.002 125.344 71.638C125.348 71.27 125.348 71.022 125.344 70.894C125.304 70.042 125.092 69.434 124.708 69.07C124.324 68.706 123.744 68.524 122.968 68.524C122.096 68.524 121.464 68.708 121.072 69.076C120.684 69.444 120.482 70.036 120.466 70.852C120.462 71.092 120.462 71.294 120.466 71.458C120.474 71.622 120.482 71.81 120.49 72.022C120.514 72.574 120.6 73.002 120.748 73.306C120.9 73.606 121.12 73.834 121.408 73.99C121.696 74.146 122.054 74.286 122.482 74.41L123.676 74.752C124.42 74.964 124.972 75.264 125.332 75.652C125.696 76.04 125.878 76.654 125.878 77.494C125.878 77.702 125.878 77.91 125.878 78.118C125.878 78.322 125.874 78.558 125.866 78.826C125.842 79.754 125.602 80.424 125.146 80.836C124.69 81.244 123.932 81.448 122.872 81.448ZM122.872 80.704C122.24 80.704 121.768 80.556 121.456 80.26C121.148 79.96 120.982 79.442 120.958 78.706C120.95 78.41 120.944 78.106 120.94 77.794C120.936 77.478 120.942 77.176 120.958 76.888H121.396C121.38 77.176 121.374 77.462 121.378 77.746C121.382 78.026 121.39 78.342 121.402 78.694C121.422 79.286 121.546 79.708 121.774 79.96C122.006 80.208 122.372 80.332 122.872 80.332C123.444 80.332 123.86 80.216 124.12 79.984C124.38 79.752 124.518 79.362 124.534 78.814C124.55 78.526 124.556 78.302 124.552 78.142C124.552 77.978 124.55 77.762 124.546 77.494C124.546 76.982 124.45 76.616 124.258 76.396C124.07 76.172 123.768 76 123.352 75.88L122.122 75.526C121.474 75.342 120.936 75.124 120.508 74.872C120.084 74.62 119.762 74.274 119.542 73.834C119.326 73.39 119.2 72.79 119.164 72.034C119.152 71.762 119.144 71.544 119.14 71.38C119.14 71.212 119.14 71.03 119.14 70.834C119.12 69.586 119.424 68.704 120.052 68.188C120.68 67.668 121.652 67.408 122.968 67.408C124.216 67.408 125.122 67.67 125.686 68.194C126.254 68.718 126.576 69.584 126.652 70.792C126.664 70.984 126.668 71.26 126.664 71.62C126.66 71.976 126.646 72.312 126.622 72.628H126.184C126.212 72.304 126.226 71.966 126.226 71.614C126.23 71.262 126.226 70.996 126.214 70.816C126.154 69.744 125.872 68.97 125.368 68.494C124.868 68.018 124.068 67.78 122.968 67.78C121.768 67.78 120.898 68.022 120.358 68.506C119.822 68.99 119.562 69.776 119.578 70.864C119.578 71.04 119.578 71.218 119.578 71.398C119.582 71.574 119.59 71.784 119.602 72.028C119.65 72.732 119.776 73.282 119.98 73.678C120.184 74.07 120.472 74.374 120.844 74.59C121.22 74.802 121.686 74.988 122.242 75.148L123.466 75.502C123.994 75.658 124.38 75.876 124.624 76.156C124.868 76.432 124.99 76.878 124.99 77.494C124.99 77.69 124.99 77.85 124.99 77.974C124.994 78.098 124.994 78.222 124.99 78.346C124.99 78.47 124.986 78.63 124.978 78.826C124.962 79.478 124.794 79.954 124.474 80.254C124.158 80.554 123.624 80.704 122.872 80.704ZM137.983 82.192C136.535 82.192 135.491 81.906 134.851 81.334C134.215 80.762 133.885 79.818 133.861 78.502C133.837 77.062 133.821 75.696 133.813 74.404C133.805 73.108 133.805 71.806 133.813 70.498C133.821 69.186 133.835 67.784 133.855 66.292C133.879 64.964 134.215 64.022 134.863 63.466C135.511 62.91 136.547 62.632 137.971 62.632C139.391 62.632 140.423 62.914 141.067 63.478C141.715 64.042 142.063 64.984 142.111 66.304C142.127 66.588 142.137 66.868 142.141 67.144C142.145 67.416 142.145 67.688 142.141 67.96C142.141 68.228 142.137 68.498 142.129 68.77C142.125 69.042 142.115 69.32 142.099 69.604H141.637C141.653 69.224 141.663 68.856 141.667 68.5C141.675 68.14 141.677 67.78 141.673 67.42C141.673 67.06 141.665 66.692 141.649 66.316C141.601 65.124 141.289 64.274 140.713 63.766C140.141 63.254 139.227 62.998 137.971 62.998C136.711 62.998 135.791 63.25 135.211 63.754C134.635 64.258 134.339 65.108 134.323 66.304C134.307 67.616 134.293 68.94 134.281 70.276C134.273 71.612 134.271 72.964 134.275 74.332C134.283 75.7 134.299 77.086 134.323 78.49C134.347 79.726 134.657 80.59 135.253 81.082C135.853 81.574 136.763 81.82 137.983 81.82C139.279 81.82 140.217 81.562 140.797 81.046C141.381 80.53 141.697 79.678 141.745 78.49C141.769 77.966 141.779 77.422 141.775 76.858C141.771 76.294 141.757 75.678 141.733 75.01H142.195C142.227 75.814 142.241 76.486 142.237 77.026C142.237 77.562 142.227 78.054 142.207 78.502C142.159 79.814 141.809 80.758 141.157 81.334C140.509 81.906 139.451 82.192 137.983 82.192ZM137.983 81.448C136.863 81.448 136.055 81.22 135.559 80.764C135.067 80.304 134.811 79.546 134.791 78.49C134.767 76.978 134.751 75.578 134.743 74.29C134.735 72.998 134.735 71.714 134.743 70.438C134.751 69.162 134.765 67.784 134.785 66.304C134.801 65.252 135.057 64.5 135.553 64.048C136.049 63.596 136.855 63.37 137.971 63.37C139.123 63.37 139.935 63.61 140.407 64.09C140.883 64.566 141.141 65.316 141.181 66.34C141.193 66.6 141.201 66.854 141.205 67.102C141.213 67.35 141.215 67.604 141.211 67.864C141.211 68.12 141.207 68.39 141.199 68.674C141.195 68.958 141.185 69.268 141.169 69.604H140.707C140.727 69.068 140.739 68.608 140.743 68.224C140.747 67.836 140.747 67.494 140.743 67.198C140.739 66.902 140.731 66.62 140.719 66.352C140.683 65.464 140.465 64.808 140.065 64.384C139.665 63.96 138.967 63.748 137.971 63.748C137.007 63.748 136.317 63.95 135.901 64.354C135.485 64.754 135.269 65.408 135.253 66.316C135.237 67.64 135.223 68.95 135.211 70.246C135.199 71.538 135.195 72.86 135.199 74.212C135.207 75.56 135.225 76.982 135.253 78.478C135.273 79.402 135.493 80.066 135.913 80.47C136.333 80.874 137.023 81.076 137.983 81.076C138.927 81.076 139.623 80.88 140.071 80.488C140.523 80.092 140.771 79.414 140.815 78.454C140.831 78.134 140.841 77.792 140.845 77.428C140.849 77.06 140.847 76.674 140.839 76.27C140.831 75.862 140.819 75.442 140.803 75.01H141.265C141.289 75.514 141.303 75.972 141.307 76.384C141.311 76.796 141.311 77.172 141.307 77.512C141.303 77.852 141.293 78.17 141.277 78.466C141.233 79.506 140.963 80.264 140.467 80.74C139.971 81.212 139.143 81.448 137.983 81.448ZM137.983 80.704C137.195 80.704 136.625 80.532 136.273 80.188C135.921 79.844 135.739 79.274 135.727 78.478C135.699 77.078 135.681 75.738 135.673 74.458C135.665 73.174 135.665 71.874 135.673 70.558C135.681 69.238 135.697 67.824 135.721 66.316C135.733 65.536 135.911 64.976 136.255 64.636C136.603 64.292 137.175 64.12 137.971 64.12C138.747 64.12 139.313 64.294 139.669 64.642C140.025 64.99 140.219 65.57 140.251 66.382C140.267 66.734 140.277 67.088 140.281 67.444C140.285 67.796 140.283 68.152 140.275 68.512C140.267 68.868 140.255 69.232 140.239 69.604H139.777C139.793 69.212 139.803 68.838 139.807 68.482C139.815 68.126 139.817 67.776 139.813 67.432C139.813 67.088 139.805 66.738 139.789 66.382C139.761 65.702 139.605 65.218 139.321 64.93C139.041 64.638 138.591 64.492 137.971 64.492C137.379 64.492 136.937 64.628 136.645 64.9C136.353 65.172 136.199 65.652 136.183 66.34C136.159 67.656 136.141 68.954 136.129 70.234C136.121 71.51 136.121 72.82 136.129 74.164C136.137 75.508 136.155 76.938 136.183 78.454C136.199 79.146 136.351 79.632 136.639 79.912C136.931 80.192 137.379 80.332 137.983 80.332C138.647 80.332 139.123 80.182 139.411 79.882C139.699 79.582 139.857 79.098 139.885 78.43C139.909 77.918 139.919 77.384 139.915 76.828C139.911 76.268 139.897 75.662 139.873 75.01H140.335C140.363 75.662 140.377 76.27 140.377 76.834C140.381 77.398 140.371 77.93 140.347 78.43C140.315 79.238 140.117 79.82 139.753 80.176C139.389 80.528 138.799 80.704 137.983 80.704ZM148.36 82.192C146.964 82.192 145.96 81.898 145.348 81.31C144.74 80.722 144.402 79.772 144.334 78.46C144.298 77.66 144.272 76.866 144.256 76.078C144.24 75.29 144.238 74.49 144.25 73.678C144.262 72.862 144.29 72.016 144.334 71.14C144.402 69.776 144.756 68.814 145.396 68.254C146.04 67.69 147.028 67.408 148.36 67.408C149.716 67.408 150.706 67.696 151.33 68.272C151.958 68.844 152.306 69.802 152.374 71.146C152.43 72.386 152.458 73.614 152.458 74.83C152.462 76.046 152.434 77.256 152.374 78.46C152.302 79.824 151.944 80.788 151.3 81.352C150.66 81.912 149.68 82.192 148.36 82.192ZM148.36 81.82C149.556 81.82 150.43 81.558 150.982 81.034C151.534 80.51 151.842 79.642 151.906 78.43C151.966 77.286 151.996 76.122 151.996 74.938C152 73.75 151.97 72.494 151.906 71.17C151.846 69.958 151.54 69.09 150.988 68.566C150.44 68.042 149.564 67.78 148.36 67.78C147.156 67.78 146.276 68.04 145.72 68.56C145.168 69.08 144.86 69.95 144.796 71.17C144.752 72.086 144.724 72.948 144.712 73.756C144.7 74.564 144.702 75.35 144.718 76.114C144.734 76.874 144.76 77.648 144.796 78.436C144.856 79.636 145.16 80.5 145.708 81.028C146.26 81.556 147.144 81.82 148.36 81.82ZM148.36 81.448C147.288 81.448 146.516 81.208 146.044 80.728C145.576 80.248 145.314 79.472 145.258 78.4C145.222 77.588 145.196 76.798 145.18 76.03C145.164 75.262 145.162 74.482 145.174 73.69C145.19 72.898 145.22 72.066 145.264 71.194C145.32 70.09 145.592 69.308 146.08 68.848C146.568 68.384 147.328 68.152 148.36 68.152C149.396 68.152 150.154 68.386 150.634 68.854C151.118 69.318 151.386 70.096 151.438 71.188C151.478 72.036 151.504 72.854 151.516 73.642C151.532 74.43 151.534 75.214 151.522 75.994C151.51 76.77 151.482 77.574 151.438 78.406C151.386 79.49 151.12 80.268 150.64 80.74C150.16 81.212 149.4 81.448 148.36 81.448ZM148.36 81.076C149.244 81.076 149.888 80.868 150.292 80.452C150.696 80.032 150.924 79.336 150.976 78.364C151.036 77.208 151.066 76.066 151.066 74.938C151.07 73.806 151.04 72.568 150.976 71.224C150.932 70.232 150.7 69.534 150.28 69.13C149.864 68.726 149.224 68.524 148.36 68.524C147.452 68.524 146.798 68.738 146.398 69.166C145.998 69.594 145.774 70.282 145.726 71.23C145.69 72.042 145.664 72.832 145.648 73.6C145.632 74.364 145.63 75.138 145.642 75.922C145.658 76.706 145.686 77.528 145.726 78.388C145.774 79.352 146.002 80.042 146.41 80.458C146.822 80.87 147.472 81.076 148.36 81.076ZM148.36 80.704C147.628 80.704 147.094 80.524 146.758 80.164C146.422 79.8 146.232 79.204 146.188 78.376C146.152 77.536 146.126 76.734 146.11 75.97C146.094 75.202 146.092 74.432 146.104 73.66C146.12 72.888 146.148 72.082 146.188 71.242C146.232 70.39 146.426 69.786 146.77 69.43C147.114 69.074 147.644 68.896 148.36 68.896C149.088 68.896 149.618 69.078 149.95 69.442C150.286 69.802 150.474 70.402 150.514 71.242C150.578 72.606 150.606 73.852 150.598 74.98C150.594 76.108 150.566 77.232 150.514 78.352C150.47 79.196 150.28 79.8 149.944 80.164C149.608 80.524 149.08 80.704 148.36 80.704ZM148.36 80.332C148.928 80.332 149.342 80.176 149.602 79.864C149.862 79.552 150.01 79.042 150.046 78.334C150.102 77.182 150.132 76.06 150.136 74.968C150.14 73.876 150.11 72.642 150.046 71.266C150.014 70.566 149.868 70.058 149.608 69.742C149.352 69.426 148.936 69.268 148.36 69.268C147.776 69.268 147.354 69.428 147.094 69.748C146.838 70.064 146.692 70.568 146.656 71.26C146.616 72.112 146.588 72.918 146.572 73.678C146.56 74.434 146.56 75.19 146.572 75.946C146.588 76.702 146.616 77.506 146.656 78.358C146.692 79.046 146.84 79.548 147.1 79.864C147.364 80.176 147.784 80.332 148.36 80.332ZM154.193 72.418V72.01H161.981V72.418H154.193ZM154.193 74.032V73.63H161.981V74.032H154.193ZM154.193 73.222V72.82H161.981V73.222H154.193ZM164.099 82V62.8H168.041C168.901 62.8 169.613 62.91 170.177 63.13C170.745 63.35 171.173 63.716 171.461 64.228C171.753 64.736 171.913 65.426 171.941 66.298C171.969 67.29 171.983 68.174 171.983 68.95C171.987 69.722 171.973 70.522 171.941 71.35C171.905 72.25 171.733 72.954 171.425 73.462C171.121 73.97 170.685 74.328 170.117 74.536C169.553 74.744 168.857 74.848 168.029 74.848H166.427V82H165.959V74.446H168.029C168.733 74.446 169.335 74.36 169.835 74.188C170.335 74.012 170.725 73.7 171.005 73.252C171.289 72.8 171.445 72.162 171.473 71.338C171.501 70.726 171.519 70.162 171.527 69.646C171.535 69.13 171.533 68.608 171.521 68.08C171.513 67.548 171.497 66.958 171.473 66.31C171.445 65.494 171.293 64.862 171.017 64.414C170.745 63.962 170.359 63.648 169.859 63.472C169.359 63.292 168.753 63.202 168.041 63.202H164.567V82H164.099ZM165.029 82V63.61H168.041C168.653 63.61 169.175 63.688 169.607 63.844C170.039 64 170.373 64.276 170.609 64.672C170.849 65.064 170.983 65.616 171.011 66.328C171.039 67.164 171.055 68 171.059 68.836C171.067 69.668 171.051 70.494 171.011 71.314C170.979 72.034 170.841 72.592 170.597 72.988C170.353 73.384 170.013 73.66 169.577 73.816C169.145 73.968 168.629 74.044 168.029 74.044H165.497V82H165.029ZM165.497 73.636H168.029C168.797 73.636 169.399 73.48 169.835 73.168C170.271 72.856 170.507 72.234 170.543 71.302C170.567 70.75 170.581 70.218 170.585 69.706C170.593 69.194 170.593 68.668 170.585 68.128C170.581 67.584 170.567 66.99 170.543 66.346C170.511 65.434 170.279 64.818 169.847 64.498C169.419 64.174 168.817 64.012 168.041 64.012H165.497V73.636ZM165.959 73.234V64.414H168.041C168.677 64.414 169.169 64.55 169.517 64.822C169.869 65.09 170.057 65.602 170.081 66.358C170.101 67.018 170.113 67.624 170.117 68.176C170.125 68.724 170.127 69.248 170.123 69.748C170.119 70.248 170.105 70.762 170.081 71.29C170.049 72.042 169.861 72.554 169.517 72.826C169.177 73.098 168.681 73.234 168.029 73.234H165.959ZM166.427 72.832H168.029C168.505 72.832 168.883 72.728 169.163 72.52C169.443 72.312 169.593 71.894 169.613 71.266C169.645 70.494 169.659 69.726 169.655 68.962C169.655 68.194 169.641 67.33 169.613 66.37C169.597 65.75 169.451 65.338 169.175 65.134C168.899 64.926 168.521 64.822 168.041 64.822H166.427V72.832ZM174.022 63.34V62.926H176.344V63.34H174.022ZM174.022 65.008V64.588H176.344V65.008H174.022ZM174.022 64.174V63.76H176.344V64.174H174.022ZM175.882 82V67.6H176.344V82H175.882ZM174.022 82V67.6H174.484V82H174.022ZM174.952 82V67.6H175.414V82H174.952ZM180.781 82V62.8H181.243V82H180.781ZM178.921 82V62.8H179.383V82H178.921ZM179.851 82V62.8H180.313V82H179.851ZM187.665 82.192C186.269 82.192 185.265 81.898 184.653 81.31C184.045 80.722 183.707 79.772 183.639 78.46C183.603 77.66 183.577 76.866 183.561 76.078C183.545 75.29 183.543 74.49 183.555 73.678C183.567 72.862 183.595 72.016 183.639 71.14C183.707 69.776 184.061 68.814 184.701 68.254C185.345 67.69 186.333 67.408 187.665 67.408C189.021 67.408 190.011 67.696 190.635 68.272C191.263 68.844 191.611 69.802 191.679 71.146C191.735 72.386 191.763 73.614 191.763 74.83C191.767 76.046 191.739 77.256 191.679 78.46C191.607 79.824 191.249 80.788 190.605 81.352C189.965 81.912 188.985 82.192 187.665 82.192ZM187.665 81.82C188.861 81.82 189.735 81.558 190.287 81.034C190.839 80.51 191.147 79.642 191.211 78.43C191.271 77.286 191.301 76.122 191.301 74.938C191.305 73.75 191.275 72.494 191.211 71.17C191.151 69.958 190.845 69.09 190.293 68.566C189.745 68.042 188.869 67.78 187.665 67.78C186.461 67.78 185.581 68.04 185.025 68.56C184.473 69.08 184.165 69.95 184.101 71.17C184.057 72.086 184.029 72.948 184.017 73.756C184.005 74.564 184.007 75.35 184.023 76.114C184.039 76.874 184.065 77.648 184.101 78.436C184.161 79.636 184.465 80.5 185.013 81.028C185.565 81.556 186.449 81.82 187.665 81.82ZM187.665 81.448C186.593 81.448 185.821 81.208 185.349 80.728C184.881 80.248 184.619 79.472 184.563 78.4C184.527 77.588 184.501 76.798 184.485 76.03C184.469 75.262 184.467 74.482 184.479 73.69C184.495 72.898 184.525 72.066 184.569 71.194C184.625 70.09 184.897 69.308 185.385 68.848C185.873 68.384 186.633 68.152 187.665 68.152C188.701 68.152 189.459 68.386 189.939 68.854C190.423 69.318 190.691 70.096 190.743 71.188C190.783 72.036 190.809 72.854 190.821 73.642C190.837 74.43 190.839 75.214 190.827 75.994C190.815 76.77 190.787 77.574 190.743 78.406C190.691 79.49 190.425 80.268 189.945 80.74C189.465 81.212 188.705 81.448 187.665 81.448ZM187.665 81.076C188.549 81.076 189.193 80.868 189.597 80.452C190.001 80.032 190.229 79.336 190.281 78.364C190.341 77.208 190.371 76.066 190.371 74.938C190.375 73.806 190.345 72.568 190.281 71.224C190.237 70.232 190.005 69.534 189.585 69.13C189.169 68.726 188.529 68.524 187.665 68.524C186.757 68.524 186.103 68.738 185.703 69.166C185.303 69.594 185.079 70.282 185.031 71.23C184.995 72.042 184.969 72.832 184.953 73.6C184.937 74.364 184.935 75.138 184.947 75.922C184.963 76.706 184.991 77.528 185.031 78.388C185.079 79.352 185.307 80.042 185.715 80.458C186.127 80.87 186.777 81.076 187.665 81.076ZM187.665 80.704C186.933 80.704 186.399 80.524 186.063 80.164C185.727 79.8 185.537 79.204 185.493 78.376C185.457 77.536 185.431 76.734 185.415 75.97C185.399 75.202 185.397 74.432 185.409 73.66C185.425 72.888 185.453 72.082 185.493 71.242C185.537 70.39 185.731 69.786 186.075 69.43C186.419 69.074 186.949 68.896 187.665 68.896C188.393 68.896 188.923 69.078 189.255 69.442C189.591 69.802 189.779 70.402 189.819 71.242C189.883 72.606 189.911 73.852 189.903 74.98C189.899 76.108 189.871 77.232 189.819 78.352C189.775 79.196 189.585 79.8 189.249 80.164C188.913 80.524 188.385 80.704 187.665 80.704ZM187.665 80.332C188.233 80.332 188.647 80.176 188.907 79.864C189.167 79.552 189.315 79.042 189.351 78.334C189.407 77.182 189.437 76.06 189.441 74.968C189.445 73.876 189.415 72.642 189.351 71.266C189.319 70.566 189.173 70.058 188.913 69.742C188.657 69.426 188.241 69.268 187.665 69.268C187.081 69.268 186.659 69.428 186.399 69.748C186.143 70.064 185.997 70.568 185.961 71.26C185.921 72.112 185.893 72.918 185.877 73.678C185.865 74.434 185.865 75.19 185.877 75.946C185.893 76.702 185.921 77.506 185.961 78.358C185.997 79.046 186.145 79.548 186.405 79.864C186.669 80.176 187.089 80.332 187.665 80.332ZM198.393 81.4C197.305 81.4 196.525 81.194 196.053 80.782C195.581 80.37 195.345 79.69 195.345 78.742V68.806H193.197V68.404H195.345V63.52H195.813V68.404H199.377V68.806H195.813V78.742C195.813 79.546 196.011 80.124 196.407 80.476C196.807 80.824 197.469 80.998 198.393 80.998C198.605 80.998 198.813 80.992 199.017 80.98C199.225 80.964 199.437 80.942 199.653 80.914V81.304C199.481 81.336 199.291 81.36 199.083 81.376C198.879 81.392 198.649 81.4 198.393 81.4ZM198.393 82.192C196.973 82.192 195.955 81.926 195.339 81.394C194.723 80.858 194.415 79.974 194.415 78.742V69.61H193.197V69.208H194.883V78.742C194.883 79.834 195.153 80.616 195.693 81.088C196.237 81.56 197.137 81.796 198.393 81.796C198.621 81.796 198.837 81.788 199.041 81.772C199.249 81.752 199.453 81.726 199.653 81.694V82.084C199.329 82.156 198.909 82.192 198.393 82.192ZM198.393 80.596C197.637 80.596 197.095 80.454 196.767 80.17C196.439 79.882 196.275 79.406 196.275 78.742V69.208H199.377V69.61H196.743V78.742C196.743 79.266 196.871 79.64 197.127 79.864C197.383 80.088 197.805 80.2 198.393 80.2C198.609 80.2 198.823 80.196 199.035 80.188C199.247 80.176 199.453 80.156 199.653 80.128V80.518C199.469 80.542 199.271 80.562 199.059 80.578C198.851 80.59 198.629 80.596 198.393 80.596ZM193.197 68.002V67.6H194.415V63.52H194.883V68.002H193.197ZM196.275 68.002V63.52H196.743V67.6H199.377V68.002H196.275Z" fill="#045200"/>
</svg>
