<svg width="90" height="90" viewBox="0 0 90 90" fill="none" xmlns="http://www.w3.org/2000/svg">
<path d="M74.5133 38.6448C75.296 36.2878 75.5667 33.7909 75.3073 31.3209C75.0479 28.8509 74.2645 26.4647 73.0092 24.3216C71.1483 21.0825 68.3068 18.5179 64.8944 16.9978C61.482 15.4776 57.675 15.0804 54.0223 15.8633C51.9471 13.5549 49.301 11.8333 46.3499 10.8712C43.3987 9.90908 40.2464 9.74046 37.2094 10.3822C34.1725 11.024 31.3578 12.4536 29.0482 14.5274C26.7386 16.6012 25.0154 19.2463 24.0515 22.1968C21.618 22.6959 19.3191 23.7085 17.3083 25.1672C15.2976 26.6258 13.6213 28.4968 12.3915 30.6552C10.5104 33.889 9.7064 37.6372 10.0958 41.358C10.4852 45.0788 12.0478 48.5794 14.5578 51.3536C13.7722 53.7095 13.4988 56.206 13.7558 58.676C14.0128 61.1461 14.7944 63.5328 16.0482 65.6765C17.9115 68.9168 20.7554 71.4819 24.1702 73.0021C27.585 74.5223 31.3943 74.919 35.0491 74.1351C36.6978 75.9917 38.7236 77.4752 40.9912 78.4866C43.2589 79.4979 45.7162 80.0139 48.1992 79.9999C51.9431 80.0034 55.5913 78.817 58.6171 76.6122C61.643 74.4073 63.8899 71.298 65.0336 67.733C67.4668 67.2331 69.7654 66.2201 71.776 64.7615C73.7867 63.3029 75.4631 61.4322 76.6935 59.2744C78.5525 56.0454 79.3426 52.3112 78.951 48.606C78.5594 44.9007 77.0062 41.4139 74.5133 38.6448ZM48.1992 75.4184C45.1329 75.4233 42.1628 74.3486 39.8097 72.3828L40.2235 72.1483L54.1603 64.1035C54.5071 63.9001 54.7951 63.6099 54.9959 63.2615C55.1967 62.9131 55.3035 62.5185 55.3056 62.1164V42.4671L61.1973 45.8755C61.2264 45.8903 61.2516 45.9117 61.2709 45.9381C61.2902 45.9644 61.3029 45.9949 61.3081 46.0272V62.3098C61.3007 65.7842 59.9172 69.1142 57.4604 71.5709C55.0036 74.0277 51.6736 75.4111 48.1992 75.4184ZM20.0221 63.386C18.4844 60.7307 17.9323 57.6182 18.4629 54.5961L18.877 54.8446L32.8275 62.8893C33.1726 63.0919 33.5656 63.1986 33.9658 63.1986C34.3661 63.1986 34.759 63.0919 35.1042 62.8893L52.1457 53.0645V59.8673C52.1441 59.9026 52.1346 59.937 52.1178 59.9681C52.101 59.9992 52.0775 60.026 52.0489 60.0467L37.9328 68.188C34.9202 69.9235 31.3421 70.3925 27.9841 69.4922C24.626 68.5919 21.7624 66.3957 20.0221 63.386ZM16.3518 33.0288C17.9002 30.3564 20.3442 28.3181 23.2512 27.2748V43.8333C23.2459 44.2333 23.3481 44.6274 23.5471 44.9745C23.7461 45.3215 24.0346 45.6088 24.3825 45.8064L41.3412 55.5898L35.4493 58.9979C35.4174 59.0148 35.3818 59.0237 35.3457 59.0237C35.3096 59.0237 35.2741 59.0148 35.2422 58.9979L21.1538 50.8706C18.1469 49.1276 15.9532 46.2641 15.0532 42.9072C14.1532 39.5502 14.6201 35.9733 16.3518 32.9599V33.0288ZM64.7577 44.2748L47.7439 34.3949L53.6221 30.9999C53.654 30.983 53.6896 30.9741 53.7257 30.9741C53.7618 30.9741 53.7973 30.983 53.8292 30.9999L67.9176 39.1412C70.0717 40.3842 71.8278 42.2142 72.9808 44.4178C74.1338 46.6213 74.6362 49.1074 74.4294 51.5858C74.2225 54.0641 73.3148 56.4325 71.8124 58.4144C70.31 60.3963 68.2748 61.9099 65.9445 62.7785V46.22C65.9322 45.8206 65.8164 45.4313 65.6083 45.0902C65.4002 44.7492 65.1072 44.4684 64.7577 44.2748ZM70.6222 35.4575L70.208 35.209L56.2853 27.0954C55.938 26.8916 55.5426 26.7841 55.14 26.7841C54.7373 26.7841 54.3419 26.8916 53.9946 27.0954L36.9674 36.9199V30.1173C36.9638 30.0828 36.9695 30.0478 36.9841 30.0163C36.9987 29.9847 37.0215 29.9576 37.0502 29.938L51.1386 21.8104C53.2978 20.5665 55.7666 19.9631 58.2562 20.0708C60.7458 20.1784 63.1533 20.9928 65.197 22.4185C67.2408 23.8442 68.8364 25.8223 69.7972 28.1216C70.758 30.4208 71.0442 32.9461 70.6225 35.4021L70.6222 35.4575ZM33.7518 47.517L27.8601 44.1226C27.8306 44.1048 27.8054 44.0808 27.7862 44.0522C27.7671 44.0237 27.7545 43.9912 27.7493 43.9572V27.7163C27.7525 25.2249 28.4649 22.7858 29.8033 20.6843C31.1417 18.5828 33.0507 16.9057 35.307 15.8491C37.5634 14.7926 40.0739 14.4002 42.5451 14.7179C45.0163 15.0355 47.3459 16.0501 49.2617 17.6431L48.8475 17.8778L34.9111 25.922C34.5643 26.1254 34.2763 26.4156 34.0755 26.764C33.8747 27.1124 33.7679 27.507 33.7658 27.9091L33.7518 47.517ZM36.9531 40.6179L44.5423 36.2435L52.1457 40.6179V49.3662L44.57 53.7403L36.9671 49.3662L36.9531 40.6179Z" fill="#412991"/>
</svg>
