<svg width="90" height="90" viewBox="0 0 90 90" fill="none" xmlns="http://www.w3.org/2000/svg">
<path d="M60.7938 51.9476C59.9275 51.513 55.6663 49.4189 54.8729 49.1272C54.0767 48.8385 53.4992 48.6955 52.9188 49.5647C52.3442 50.431 50.6817 52.3822 50.1771 52.9597C49.6725 53.5401 49.165 53.6101 48.2988 53.1785C47.4325 52.741 44.6383 51.828 41.3279 48.8764C38.7525 46.578 37.0113 43.7401 36.5067 42.871C36.0021 42.0047 36.4542 41.5351 36.8858 41.1035C37.2767 40.7155 37.755 40.0914 38.1867 39.5868C38.6213 39.0793 38.7642 38.7176 39.0558 38.1372C39.3446 37.5597 39.2017 37.0551 38.9829 36.6205C38.7642 36.186 37.0317 31.9189 36.3113 30.1835C35.6054 28.4947 34.8908 28.7251 34.36 28.696C33.8554 28.6726 33.2779 28.6668 32.6975 28.6668C32.12 28.6668 31.1808 28.8826 30.3875 29.7518C29.5942 30.618 27.3542 32.7151 27.3542 36.9822C27.3542 41.2464 30.4604 45.3676 30.8921 45.948C31.3267 46.5255 37.0054 55.2814 45.7 59.0351C47.7679 59.9276 49.3808 60.4614 50.6408 60.858C52.7175 61.5201 54.6075 61.4268 56.0979 61.2022C57.7633 60.9543 61.2254 59.1051 61.9488 57.081C62.6721 55.0568 62.6721 53.3214 62.4533 52.9597C62.2375 52.598 61.6629 52.3822 60.7938 51.9476ZM44.9796 73.5397H44.9679C39.8047 73.5401 34.7365 72.1519 30.2942 69.5205L29.2413 68.8964L18.33 71.7605L21.2408 61.1205L20.5554 60.0297C17.6692 55.4338 16.1423 50.115 16.1513 44.688C16.1542 28.7922 29.0896 15.8597 44.9913 15.8597C52.6913 15.8597 59.9304 18.8639 65.3729 24.3122C68.0582 26.9857 70.1867 30.1652 71.635 33.6667C73.0834 37.1682 73.8229 40.9222 73.8108 44.7114C73.8021 60.6072 60.8696 73.5397 44.9796 73.5397ZM69.5175 20.1735C66.3039 16.9386 62.4803 14.3738 58.2682 12.6275C54.0561 10.8811 49.5393 9.98811 44.9796 10.0001C25.8608 10.0001 10.3004 25.5605 10.2917 44.6851C10.2917 50.7985 11.8871 56.766 14.9233 62.0247L10 80.0001L28.3896 75.176C33.4751 77.9466 39.1738 79.3986 44.965 79.3993H44.9796C64.0954 79.3993 79.6588 63.8389 79.6675 44.7114C79.6816 40.1534 78.7918 35.6379 77.0496 31.4261C75.3074 27.2142 72.7473 23.3896 69.5175 20.1735Z" fill="#25D366"/>
</svg>
